<svg width="122" height="122" viewBox="0 0 122 122" fill="none" xmlns="http://www.w3.org/2000/svg">
<path d="M102.388 7.66699H19.6108V72.3372H102.388V7.66699Z" fill="#6FB7DE"/>
<path d="M93.014 17.042H28.9848V62.964H93.014V17.042Z" fill="white"/>
<path d="M102.389 81.3337H19.611L2.81172 94.0098V114.333C7.3567 114.333 113.782 114.333 119.188 114.333V94.0098L102.389 81.3337Z" fill="#6FB7DE"/>
<path d="M82.335 104.078C85.0822 104.078 87.3093 101.851 87.3093 99.1035C87.3093 96.3562 85.0822 94.1292 82.335 94.1292C79.5877 94.1292 77.3606 96.3562 77.3606 99.1035C77.3606 101.851 79.5877 104.078 82.335 104.078Z" fill="#FEC898"/>
<path d="M99.0547 104.078C101.802 104.078 104.029 101.851 104.029 99.1035C104.029 96.3562 101.802 94.1292 99.0547 94.1292C96.3074 94.1292 94.0804 96.3562 94.0804 99.1035C94.0804 101.851 96.3074 104.078 99.0547 104.078Z" fill="#D95B72"/>
<path d="M19.6115 75.1491H102.389C103.943 75.1491 105.201 73.8901 105.201 72.3369V7.66693C105.201 6.11381 103.942 4.85474 102.389 4.85474H19.6115C18.0579 4.85474 16.7993 6.11381 16.7993 7.66693V72.3369C16.7993 73.8901 18.0579 75.1491 19.6115 75.1491ZM22.4237 10.4791H99.5765V69.5245H22.4237V10.4791Z" fill="black"/>
<path d="M93.0143 14.2288H28.9852C27.4321 14.2288 26.173 15.4878 26.173 17.041V62.9628C26.173 64.5159 27.4321 65.7749 28.9852 65.7749H93.0148C94.5684 65.7749 95.827 64.5159 95.827 62.9628V17.0412C95.8267 15.4881 94.5679 14.2288 93.0143 14.2288ZM90.2021 60.1506H31.7974V19.8534H90.2026V60.1506H90.2021Z" fill="black"/>
<path d="M120.882 91.7649L104.082 79.0888C103.594 78.7207 102.999 78.5215 102.388 78.5215H19.6115C19.0003 78.5215 18.4056 78.7207 17.9173 79.0888L1.11825 91.7649C0.414371 92.2963 0 93.1276 0 94.0098V114.333C0 115.886 1.25884 117.145 2.8122 117.145H119.188C120.741 117.145 122 115.886 122 114.333V94.0098C122 93.1276 121.586 92.2963 120.882 91.7649ZM116.376 111.521H5.62439V95.4109L20.5532 84.1459H101.446L116.375 95.4109V111.521H116.376Z" fill="black"/>
<path d="M65.169 96.2896H15.9641C14.4105 96.2896 13.1519 97.5486 13.1519 99.1017C13.1519 100.655 14.4108 101.914 15.9641 101.914H65.169C66.7226 101.914 67.9812 100.655 67.9812 99.1017C67.9814 97.5486 66.7221 96.2896 65.169 96.2896Z" fill="black"/>
<path d="M82.3336 91.3152C78.0397 91.3152 74.5465 94.8079 74.5465 99.1017C74.5465 103.395 78.0397 106.888 82.3336 106.888C86.6269 106.888 90.1201 103.396 90.1201 99.1017C90.1201 94.8079 86.6269 91.3152 82.3336 91.3152ZM82.3336 101.263C81.1412 101.263 80.1712 100.294 80.1712 99.1013C80.1712 97.9087 81.1412 96.9391 82.3336 96.9391C83.5257 96.9391 84.4957 97.9091 84.4957 99.1013C84.4957 100.293 83.5255 101.263 82.3336 101.263Z" fill="black"/>
<path d="M91.2693 99.1017C91.2693 103.395 94.7621 106.888 99.0559 106.888C103.35 106.888 106.842 103.396 106.842 99.1017C106.842 94.8079 103.35 91.3152 99.0559 91.3152C94.7621 91.3152 91.2693 94.8079 91.2693 99.1017ZM101.218 99.1017C101.218 100.294 100.248 101.264 99.0554 101.264C97.8633 101.264 96.8933 100.294 96.8933 99.1017C96.8933 97.9091 97.8633 96.9396 99.0554 96.9396C100.248 96.9396 101.218 97.9096 101.218 99.1017Z" fill="black"/>
</svg>
