<svg width="800" height="637" viewBox="0 0 800 637" fill="none" xmlns="http://www.w3.org/2000/svg">
<path d="M617.554 77.3942C688.185 118.802 802.853 154.247 799.42 224.048C795.987 293.85 729.583 364.834 701.492 445.874C673.979 526.915 672.096 569.476 636.374 609.7C600.643 649.333 518.968 638.094 446.489 623.897C374.598 610.292 324.139 578.379 236.484 555.309C148.828 532.239 35.635 502.662 26.5765 445.874C18.0958 389.087 -28.3145 263.662 27.099 192.086C83.0904 120.51 196.809 143.265 235.229 91.8014C273.06 39.7461 376.948 18.785 447.767 3.405C519.173 -11.3834 546.345 35.9866 617.554 77.3942Z" fill="#D95B72"/>
</svg>
