<svg width="769" height="650" viewBox="0 0 769 650" fill="none" xmlns="http://www.w3.org/2000/svg">
<path d="M593.369 79C661.284 121.241 771.532 157.399 768.254 228.605C764.976 299.811 701.161 372.224 674.182 454.895C647.758 537.567 645.962 580.984 611.633 622.018C577.295 662.448 498.773 650.983 429.091 636.5C359.974 622.621 311.454 590.066 227.179 566.532C142.903 542.998 34.0748 512.826 25.348 454.895C17.1769 396.965 -27.4803 269.016 25.7687 196C79.5734 122.984 188.905 146.196 225.823 93.6971C262.176 40.5943 362.042 19.2113 430.119 3.5219C498.762 -11.5641 524.899 36.7592 593.369 79Z" fill="#D95B72"/>
</svg>
