<svg width="1087" height="717" viewBox="0 0 1087 717" fill="none" xmlns="http://www.w3.org/2000/svg">
<path d="M839.72 86.4513C935.469 133.089 1091.07 173.012 1086.07 251.63C1081.08 330.249 990.545 410.2 952.005 501.478C914.25 592.755 911.492 640.692 862.779 685.997C814.056 730.637 703.163 717.978 604.776 701.988C507.185 686.664 438.792 650.72 319.831 624.736C200.87 598.751 47.2492 565.438 35.2115 501.478C23.9589 437.517 -38.4938 296.248 37.1159 215.631C113.511 135.014 267.877 160.643 320.308 102.678C371.943 44.0475 513.16 20.4386 609.432 3.11585C706.499 -13.5406 743.186 39.8132 839.72 86.4513Z" fill="#D95B72"/>
</svg>
