<svg width="959" height="633" viewBox="0 0 959 633" fill="none" xmlns="http://www.w3.org/2000/svg">
<path d="M740.947 76.4731C825.363 117.591 962.543 152.789 958.142 222.102C953.741 291.415 873.921 361.904 839.942 442.378C806.656 522.852 804.225 565.115 761.277 605.058C718.32 644.414 620.552 633.253 533.81 619.156C447.77 605.645 387.472 573.956 282.591 551.047C177.71 528.138 42.2716 498.768 31.6587 442.378C21.7378 385.987 -33.3231 261.439 33.3376 190.363C100.69 119.288 236.786 141.884 283.012 90.7795C328.535 39.0882 453.038 18.2735 537.915 3.00109C623.494 -11.684 655.838 35.355 740.947 76.4731Z" fill="#D95B72"/>
</svg>
