<svg width="390" height="581" viewBox="0 0 390 581" fill="none" xmlns="http://www.w3.org/2000/svg">
<path d="M369 70.0781C433.486 107.883 538.179 140.245 535.044 203.974C531.91 267.703 471.283 332.512 445.636 406.502C420.516 480.492 418.797 519.35 386.183 556.075C353.56 592.26 278.991 581.999 212.817 569.037C147.181 556.615 101.111 527.479 21.0817 506.416C-58.9479 485.353 -162.294 458.349 -170.564 406.502C-178.307 354.655 -220.68 240.141 -170.087 174.792C-118.967 109.443 -15.1412 130.218 19.936 83.2319C54.4763 35.7053 149.326 16.5677 213.984 2.52573C279.178 -10.9761 303.986 32.2729 369 70.0781Z" fill="#D95B72"/>
</svg>
