<svg width="358" height="358" viewBox="0 0 358 358" fill="none" xmlns="http://www.w3.org/2000/svg">
<g clip-path="url(#clip0_8_249)">
<path d="M170.433 237.512H246.636V262.945H170.433V237.512Z" fill="#FF9A56"/>
<path d="M47.5994 319.515V349.635H295.341C303.687 349.635 310.401 342.88 310.401 334.575C310.401 326.253 303.663 319.515 295.341 319.515H116.675V293.054H254.445C262.767 293.054 269.505 286.317 269.505 277.995C269.505 269.684 262.767 262.935 254.445 262.935H116.675V182.257C116.675 163.672 123.914 146.203 137.056 133.05L140.837 129.28L113.227 101.669L109.456 105.451C88.9296 125.966 77.6295 153.241 77.6295 182.257V319.514H47.5994V319.515Z" fill="#B6F6FF"/>
<path d="M101.101 89.5442L140.837 129.28L178.799 167.242L192.297 153.745L215.133 130.909L228.631 117.411L150.933 39.7017L101.101 89.5442Z" fill="#B6F6FF"/>
<path d="M69.7542 75.2095L92.5893 98.0446L101.101 89.5442L150.933 39.7017L159.433 31.2013L136.609 8.36615L69.7542 75.2095Z" fill="#FF9A56"/>
<path d="M215.14 176.585L192.306 153.75L215.14 130.915L237.975 153.75L215.14 176.585Z" fill="#FF9A56"/>
<path d="M47.5994 311.148H69.2633V182.257C69.2633 152.011 80.6662 123.523 101.427 101.704L101.095 101.372L98.5005 103.964C95.2352 107.227 89.94 107.227 86.6725 103.96L63.8374 81.1249C60.5735 77.8596 60.5685 72.5588 63.8388 69.292L130.693 2.44938C133.959 -0.815973 139.259 -0.816672 142.526 2.45148L165.35 25.2866C168.616 28.5541 168.616 33.8507 165.349 37.1181L162.764 39.7031L234.546 111.496C237.813 114.763 237.812 120.061 234.546 123.327L226.963 130.909L243.883 147.829C247.151 151.097 247.151 156.393 243.883 159.661L221.048 182.496C217.779 185.763 212.482 185.762 209.215 182.496L192.295 165.576L184.713 173.158C181.444 176.426 176.149 176.424 172.881 173.158L140.883 141.16C130.644 152.45 125.04 166.927 125.04 182.257V254.566H162.072V237.504C162.072 232.882 165.817 229.137 170.438 229.137H246.638C251.258 229.137 255.005 232.882 255.005 237.504V254.594C267.662 254.896 277.871 265.265 277.871 277.993C277.871 290.91 267.363 301.42 254.445 301.42H125.041V311.147H295.341C308.259 311.147 318.767 321.657 318.767 334.574C318.767 347.468 308.357 358.001 295.341 358.001H47.6001C42.9797 358.001 39.2332 354.256 39.2332 349.634V319.514C39.2332 314.893 42.9789 311.148 47.5994 311.148ZM136.607 20.1998L81.5864 75.2109L92.5935 86.218C114.948 63.8605 142.34 36.4636 147.603 31.2013L136.607 20.1998ZM215.134 164.748L226.137 153.745L215.134 142.742L204.13 153.745L215.134 164.748ZM178.799 155.411C200.989 133.219 202.258 131.952 216.799 117.411L150.934 51.5367L112.932 89.5456C119.825 96.4365 171.977 148.588 178.799 155.411ZM178.806 245.872V254.567H238.271V245.872H178.806ZM55.9663 341.268H295.341C299.105 341.268 302.034 338.229 302.034 334.574C302.034 330.883 299.033 327.88 295.341 327.88H116.675C112.054 327.88 108.308 324.135 108.308 319.514V293.053C108.308 288.431 112.054 284.686 116.675 284.686H254.445C258.136 284.686 261.138 281.684 261.138 277.992C261.138 274.301 258.137 271.299 254.445 271.299C254.445 271.299 119.736 271.299 116.675 271.299C112.054 271.299 108.308 267.554 108.308 262.932V182.257C108.308 162.461 115.643 143.783 129.041 129.317L113.264 113.539C95.6561 132.202 85.9964 156.487 85.9964 182.257V319.514C85.9964 324.136 82.2507 327.881 77.6295 327.881H55.9656L55.9663 341.268Z" fill="black"/>
</g>
<defs>
<clipPath id="clip0_8_249">
<rect width="358" height="358" fill="white" transform="matrix(-1 0 0 1 358 0)"/>
</clipPath>
</defs>
</svg>
