<svg width="74" height="74" viewBox="0 0 74 74" fill="none" xmlns="http://www.w3.org/2000/svg">
<g clip-path="url(#clip0_122_1980)">
<path d="M35.2291 49.0946H50.9806V54.3518H35.2291V49.0946Z" fill="#FF9A56"/>
<path d="M9.83899 66.045V72.2708H61.0481C62.7734 72.2708 64.161 70.8747 64.161 69.1579C64.161 67.4377 62.7683 66.045 61.0481 66.045H24.1171V60.5755H52.5947C54.315 60.5755 55.7077 59.1828 55.7077 57.4626C55.7077 55.7447 54.315 54.3496 52.5947 54.3496H24.1171V37.6733C24.1171 33.8317 25.6136 30.2207 28.3299 27.502L29.1115 26.7226L23.4044 21.0155L22.625 21.7971C18.3821 26.0377 16.0463 31.6755 16.0463 37.6732V66.0447H9.83899V66.045Z" fill="#B6F6FF"/>
<path d="M20.898 18.5092L29.1115 26.7227L36.9585 34.5696L39.7486 31.7796L44.4687 27.0594L47.2589 24.2693L31.1984 8.20651L20.898 18.5092Z" fill="#B6F6FF"/>
<path d="M14.4185 15.5461L19.1386 20.2662L20.898 18.5091L31.1984 8.20649L32.9555 6.44942L28.2377 1.72931L14.4185 15.5461Z" fill="#FF9A56"/>
<path d="M44.4704 36.5008L39.7503 31.7808L44.4704 27.0607L49.1904 31.7808L44.4704 36.5008Z" fill="#FF9A56"/>
<path d="M9.83899 64.3155H14.317V37.6733C14.317 31.4213 16.674 25.5326 20.9653 21.0225L20.8968 20.954L20.3605 21.4897C19.6855 22.1642 18.591 22.1642 17.9156 21.4889L13.1954 16.7688C12.5208 16.0939 12.5198 14.9982 13.1957 14.3229L27.0148 0.506283C27.6899 -0.16868 28.7855 -0.168824 29.4607 0.506716L34.1785 5.22683C34.8536 5.90222 34.8535 6.99705 34.1782 7.67244L33.6439 8.20678L48.4815 23.0466C49.1569 23.7219 49.1566 24.8171 48.4815 25.4922L46.9142 27.0595L50.4116 30.5568C51.087 31.2322 51.087 32.3271 50.4116 33.0025L45.6915 37.7226C45.0158 38.398 43.921 38.3977 43.2456 37.7226L39.7482 34.2252L38.1809 35.7925C37.5052 36.4679 36.4107 36.4676 35.7353 35.7925L29.1211 29.1783C27.0046 31.5119 25.8463 34.5044 25.8463 37.6731V52.6199H33.5008V49.093C33.5008 48.1377 34.2751 47.3635 35.2303 47.3635H50.981C51.9361 47.3635 52.7105 48.1377 52.7105 49.093V52.6257C55.3268 52.6879 57.4371 54.8312 57.4371 57.4623C57.4371 60.1322 55.265 62.3046 52.5947 62.3046H25.8464V64.3154H61.0481C63.7183 64.3154 65.8905 66.4877 65.8905 69.1577C65.8905 71.8231 63.7387 74.0001 61.0481 74.0001H9.83913C8.88407 74.0001 8.10967 73.226 8.10967 72.2707V66.0448C8.10967 65.0896 8.88393 64.3155 9.83899 64.3155ZM28.2371 4.17536L16.8642 15.5464L19.1394 17.8216C23.7603 13.2002 29.4223 7.53716 30.51 6.44942L28.2371 4.17536ZM44.469 34.0541L46.7434 31.7797L44.469 29.5052L42.1945 31.7797L44.469 34.0541ZM36.9585 32.124C41.5453 27.5369 41.8075 27.275 44.8132 24.2693L31.1986 10.6528L23.3436 18.5094C24.7682 19.9338 35.5484 30.7138 36.9585 32.124ZM36.9599 50.8226V52.62H49.2516V50.8226H36.9599ZM11.5685 70.5413H61.0481C61.8261 70.5413 62.4317 69.9132 62.4317 69.1577C62.4317 68.3948 61.8112 67.7741 61.0481 67.7741H24.1171C23.162 67.7741 22.3876 67 22.3876 66.0447V60.5752C22.3876 59.6198 23.1619 58.8457 24.1171 58.8457H52.5947C53.3577 58.8457 53.9783 58.2252 53.9783 57.4621C53.9783 56.6991 53.3579 56.0785 52.5947 56.0785C52.5947 56.0785 24.7499 56.0785 24.1171 56.0785C23.162 56.0785 22.3876 55.3044 22.3876 54.349V37.6733C22.3876 33.5813 23.9039 29.7206 26.6733 26.7302L23.4121 23.469C19.7725 27.3267 17.7758 32.3464 17.7758 37.6733V66.0448C17.7758 67.0002 17.0015 67.7743 16.0463 67.7743H11.5683L11.5685 70.5413Z" fill="black"/>
</g>
<defs>
<clipPath id="clip0_122_1980">
<rect width="74" height="74" fill="white" transform="matrix(-1 0 0 1 74 0)"/>
</clipPath>
</defs>
</svg>
