<svg width="360" height="283" viewBox="0 0 360 283" fill="none" xmlns="http://www.w3.org/2000/svg">
<path d="M265.877 21.455C290.431 30.3329 306.703 53.502 325.75 81.2183C344.79 109.151 366.881 141.415 356.393 164.8C345.896 188.402 302.821 203.127 265.731 222.398C228.633 241.886 197.263 265.705 157.013 276.315C116.771 286.709 67.6583 283.677 40.0872 262.24C12.5162 240.804 6.76217 200.745 3.23322 165.666C-0.287788 130.371 -1.31622 100.057 7.8132 69.9586C16.9347 40.0769 36.4815 10.4118 66.1868 2.83314C95.8999 -4.96207 135.772 9.32915 171.996 13.6598C208.487 17.9905 241.323 12.5772 265.877 21.455Z" fill="#197BBD"/>
</svg>
