<svg width="840" height="379" viewBox="0 0 840 379" fill="none" xmlns="http://www.w3.org/2000/svg">
<path d="M616.702 28.6062C674.415 40.5358 713.324 71.6691 758.893 108.913C804.453 146.447 857.308 189.801 833.697 221.225C810.076 252.941 709.989 272.726 624.064 298.622C538.129 324.809 465.74 356.815 372.099 371.073C278.468 385.039 163.595 380.966 98.3498 352.16C33.105 323.354 18.1244 269.526 8.53371 222.389C-1.04668 174.962 -4.61196 134.227 15.566 93.7825C35.7338 53.6293 80.2699 13.767 149.389 3.58317C218.518 -6.89159 312.231 12.3121 397.038 18.1315C482.471 23.9508 558.988 16.6766 616.702 28.6062Z" fill="#197BBD"/>
</svg>
