<svg width="730" height="574" viewBox="0 0 730 574" fill="none" xmlns="http://www.w3.org/2000/svg">
<path d="M540.178 42.5584C590.158 60.6296 623.28 107.791 662.052 164.208C700.807 221.066 745.774 286.739 724.425 334.341C703.06 382.384 615.378 412.356 539.881 451.583C464.368 491.251 400.512 539.735 318.583 561.332C236.669 582.489 136.699 576.318 80.5779 532.683C24.4563 489.048 12.7439 407.507 5.56066 336.104C-1.60643 264.26 -3.69984 202.554 14.8833 141.289C33.4503 80.4637 73.2384 20.0797 133.704 4.65312C194.186 -11.2142 275.346 17.8759 349.08 26.6911C423.36 35.5063 490.198 24.4873 540.178 42.5584Z" fill="#197BBD"/>
</svg>
