<svg width="192" height="192" viewBox="0 0 192 192" fill="none" xmlns="http://www.w3.org/2000/svg">
<g clip-path="url(#clip0_53_676)">
<path d="M18.1169 157.977C18.1169 160.917 20.4882 163.32 23.4607 163.32H168.599C171.54 163.32 173.943 160.949 173.943 157.977V111.273H18.1169V157.977Z" fill="#FF9A56"/>
<path d="M90.6864 47.0198H18.1169V55.1462H41.3267C44.2673 55.1462 46.6704 57.5175 46.6704 60.49C46.6704 63.4624 44.2991 65.8337 41.3267 65.8337H18.1169V73.2328H30.1329C33.0736 73.2328 35.4767 75.6041 35.4767 78.5765C35.4767 81.5172 33.1054 83.9203 30.1329 83.9203H18.1169V100.616H90.6864V47.0198Z" fill="white"/>
<path d="M173.943 47.0198H101.374V100.617H173.943V47.0198Z" fill="white"/>
<path d="M80.0301 57.6445H28.8049V89.9291H80.0301V57.6445Z" fill="#6FB7DE"/>
<path d="M163.255 57.6445H112.03V89.9291H163.255V57.6445Z" fill="#6FB7DE"/>
<path d="M46.7334 153.992C56.0929 153.992 63.7454 146.372 63.7454 136.98C63.7454 127.621 56.1247 119.968 46.7334 119.968C37.3421 119.968 29.7214 127.589 29.7214 136.98C29.7214 146.34 37.3739 153.992 46.7334 153.992ZM46.7334 130.625C50.2434 130.625 53.0892 133.471 53.0892 136.981C53.0892 140.491 50.2434 143.336 46.7334 143.336C43.2234 143.336 40.3776 140.491 40.3776 136.981C40.4094 133.471 43.2552 130.625 46.7334 130.625Z" fill="black"/>
<path d="M145.327 153.992C154.686 153.992 162.338 146.372 162.338 136.98C162.338 127.621 154.718 119.968 145.327 119.968C135.935 119.968 128.315 127.589 128.315 136.98C128.283 146.34 135.903 153.992 145.327 153.992ZM145.327 130.625C148.837 130.625 151.682 133.471 151.682 136.981C151.682 140.491 148.837 143.336 145.327 143.336C141.817 143.336 138.971 140.491 138.971 136.981C138.939 133.471 141.817 130.625 145.327 130.625Z" fill="black"/>
<path d="M77.374 142.292H114.686C117.627 142.292 120.03 139.921 120.03 136.949C120.03 134.008 117.659 131.605 114.686 131.605H77.374C74.4334 131.605 72.0303 133.976 72.0303 136.949C72.0303 139.921 74.4016 142.292 77.374 142.292Z" fill="black"/>
<path d="M182.259 26.3402C156.678 9.10664 126.86 0 96.0301 0C65.2001 0 35.3818 9.10664 9.8007 26.3402C8.31472 27.3204 7.46069 28.9962 7.46069 30.7673V157.977C7.46069 166.293 13.8483 173.123 21.9429 173.914V186.657C21.9429 189.598 24.3142 192.001 27.2866 192.001H53.1837C56.1243 192.001 58.5274 189.63 58.5274 186.657V174.008H133.468V186.657C133.468 189.597 135.839 192.001 138.812 192.001H164.709C167.65 192.001 170.053 189.629 170.053 186.657V173.913C178.179 173.154 184.535 166.325 184.535 157.977V30.7668C184.599 28.9962 183.714 27.3517 182.259 26.3402ZM18.1169 83.8576H30.1329C33.0735 83.8576 35.4766 81.4863 35.4766 78.5138C35.4766 75.5732 33.1053 73.1701 30.1329 73.1701H18.1169V65.771H41.3266C44.2673 65.771 46.6704 63.3997 46.6704 60.4272C46.6704 57.4866 44.2991 55.0835 41.3266 55.0835H18.1169V46.9566H90.6863V100.554H18.1169C18.1169 100.617 18.1169 83.8576 18.1169 83.8576ZM47.8722 181.344H32.6309V174.008H47.8722V181.344ZM159.429 181.344H144.188V174.008H159.429V181.344ZM173.943 157.977C173.943 160.917 171.572 163.32 168.599 163.32H23.4607C20.52 163.32 18.1169 160.949 18.1169 157.977V111.273H173.88V157.977H173.943ZM173.943 100.617H101.374V47.0197H173.943V100.617ZM173.943 36.3635H18.1169V33.6439C41.3897 18.5924 68.267 10.6557 96.0301 10.6557C123.793 10.6557 150.639 18.5924 173.943 33.6439V36.3635Z" fill="black"/>
<path d="M47.8722 174.008H32.6309V181.344H47.8722V174.008Z" fill="#6FB7DE"/>
<path d="M159.43 174.008H144.188V181.344H159.43V174.008Z" fill="#6FB7DE"/>
<path d="M18.1169 33.6444V36.3322H173.88V33.6444C150.639 18.5929 123.761 10.6562 96.0296 10.6562C68.2983 10.6562 41.4216 18.5929 18.1169 33.6444Z" fill="#FF9A56"/>
</g>
<defs>
<clipPath id="clip0_53_676">
<rect width="192" height="192" fill="white"/>
</clipPath>
</defs>
</svg>
