<svg width="474" height="235" viewBox="0 0 474 235" fill="none" xmlns="http://www.w3.org/2000/svg">
<path d="M384.458 36.0451C423.394 53.0859 452.282 74.0352 465.469 97.0169C478.657 119.842 476.145 144.7 460.759 167.056C445.374 189.413 416.8 209.424 379.12 221.775C341.441 234.282 294.655 239.128 259.487 230.999C224.32 222.869 201.084 201.763 158.38 190.038C115.677 178.469 53.5055 176.437 23.6758 161.741C-6.15394 147.045 -3.64196 119.842 8.60392 92.0141C20.8498 64.1859 42.5156 35.7324 83.9632 19.0043C125.411 2.27609 186.64 -2.72672 241.59 1.33807C296.539 5.55919 345.523 18.8479 384.458 36.0451Z" fill="#FFC122"/>
</svg>
