<svg width="388" height="212" viewBox="0 0 388 212" fill="none" xmlns="http://www.w3.org/2000/svg">
<path d="M284.074 207.199C306.35 198.916 314.306 175.054 327.672 155.136C340.72 135.218 359.177 119.046 381.454 94.9869C403.412 70.9273 360.189 63.2361 345.868 44.6984C331.229 25.9635 345.493 -3.42075 300.94 0.326233C256.388 4.27043 221.7 17.089 186.376 16.3002C151.052 15.5114 114.774 1.11504 87.7239 3.48155C60.6741 6.04527 42.2165 25.3718 25.3501 44.6984C8.48374 64.0249 -7.42794 83.5487 3.71023 98.9311C14.8484 114.313 53.3547 125.554 74.6763 140.345C95.998 154.939 100.771 172.688 116.683 183.534C132.595 194.381 159.645 198.128 192.105 203.452C224.246 208.777 261.48 215.679 284.074 207.199Z" fill="#FFC122"/>
</svg>
