<svg width="192" height="192" viewBox="0 0 192 192" fill="none" xmlns="http://www.w3.org/2000/svg">
<g clip-path="url(#clip0_55_778)">
<path d="M184.826 72.5244H156.434C156.086 71.6073 139.392 42.646 138.791 41.9187L158.362 8.02501C159.848 5.46419 158.963 2.20741 156.402 0.721582C153.872 -0.764242 150.584 0.120992 149.098 2.68181L129.527 36.5755C128.579 36.3858 97.0246 36.2596 97.0246 36.2596C91.3337 36.2596 86.0218 39.3266 83.1445 44.259C83.1445 44.259 67.3991 71.8607 67.0514 72.9044C65.9446 72.6828 32.2093 72.6515 31.2605 72.8413L11.7531 38.9153C10.2672 36.3858 7.04225 35.4692 4.44964 36.9551C1.92012 38.4409 1.00358 41.6659 2.48941 44.2585L22.0604 78.1522C21.428 78.8795 5.58773 106.133 5.58773 106.133C2.74226 111.098 2.74226 117.199 5.58773 122.132C5.58773 122.132 21.4598 149.354 22.0604 150.113L2.48892 183.975C1.00309 186.536 1.88833 189.793 4.44915 191.279C6.97867 192.765 10.2668 191.879 11.7526 189.319L31.3236 155.425C32.2719 155.615 65.7548 155.615 66.7349 155.425L86.3059 189.319C87.7918 191.848 91.0168 192.765 93.6094 191.279C96.1389 189.793 97.0554 186.568 95.5696 183.975L75.9668 150.082C76.5674 149.354 93.4196 120.14 93.7673 119.096C94.8741 119.318 128.609 119.349 129.558 119.16L149.129 153.053C150.615 155.583 153.84 156.499 156.433 155.014C158.962 153.528 159.879 150.303 158.393 147.71L138.822 113.816C139.454 113.089 156.18 84.096 156.496 83.2107H184.888C187.829 83.2107 190.231 80.8397 190.231 77.8676C190.201 74.8959 187.767 72.5244 184.826 72.5244ZM83.1763 116.757L68.411 142.367C67.4627 144.043 65.6917 145.055 63.7951 145.055H34.2326C32.3355 145.055 30.565 144.043 29.6167 142.367L21.3014 127.982H31.8934C34.8337 127.982 37.2366 125.611 37.2366 122.638C37.2366 119.698 34.8655 117.295 31.8934 117.295H15.1042L14.7883 116.758C13.84 115.082 13.84 113.058 14.7883 111.415L17.5076 106.735H47.449C50.3894 106.735 52.7922 104.364 52.7922 101.392C52.7922 98.4515 50.4212 96.0486 47.449 96.0486H23.6729L29.5854 85.8992C30.5337 84.2236 32.3047 83.2117 34.2013 83.2117H63.732C65.6291 83.2117 67.3996 84.2236 68.3479 85.8992L83.1132 111.478C84.1251 113.09 84.1251 115.145 83.1763 116.757ZM146.031 80.5237L131.234 106.102C130.286 107.778 128.515 108.79 126.618 108.79H97.0564C95.1593 108.79 93.3888 107.778 92.4405 106.102L77.6751 80.5237C76.7268 78.9112 76.7268 76.8243 77.6751 75.1805L92.4405 49.6022C93.3888 47.9266 95.1598 46.9147 97.0564 46.9147H126.618C128.515 46.9147 130.286 47.9266 131.234 49.6022L146 75.1805C146.948 76.8243 146.948 78.8795 146.031 80.5237Z" fill="black"/>
<path d="M68.3797 85.8668C67.4314 84.1912 65.6605 83.1793 63.7638 83.1793H34.2014C32.3042 83.1793 30.5338 84.1912 29.5854 85.8668L23.7048 96.1105H47.4809C50.4212 96.1105 52.8241 98.4816 52.8241 101.454C52.8241 104.394 50.453 106.797 47.4809 106.797H17.5394L14.8201 111.476C13.8718 113.152 13.8718 115.176 14.8201 116.82L15.1361 117.357H31.8934C34.8338 117.357 37.2366 119.728 37.2366 122.7C37.2366 125.641 34.8656 128.044 31.8934 128.044H21.2696L29.585 142.366C30.5333 144.042 32.3042 145.054 34.2009 145.054H63.7315C65.6287 145.054 67.3991 144.042 68.3475 142.366L83.1128 116.788C84.0611 115.112 84.0611 113.088 83.1128 111.445L68.3797 85.8668Z" fill="#FF9A56"/>
<path d="M131.235 49.5702C130.286 47.9577 128.516 46.8827 126.619 46.8827H97.057C95.1598 46.8827 93.3893 47.8946 92.441 49.5702L77.6126 75.1804C76.6643 76.856 76.6643 78.8798 77.6126 80.5236L92.3779 106.102C93.3263 107.714 95.0972 108.789 96.9939 108.789H126.556C128.453 108.789 130.223 107.778 131.172 106.102L145.937 80.5236C146.885 78.9111 146.885 76.8242 145.937 75.1804L131.235 49.5702Z" fill="#6FB7DE"/>
</g>
<defs>
<clipPath id="clip0_55_778">
<rect width="192" height="192" fill="white"/>
</clipPath>
</defs>
</svg>
