<svg width="441" height="268" viewBox="0 0 441 268" fill="none" xmlns="http://www.w3.org/2000/svg">
<path d="M282.541 219.964C311.587 208.725 353.653 213.22 384.452 202.731C415.25 192.428 434.531 167.327 439.539 139.979C444.797 112.63 436.033 83.0342 410.493 65.9882C384.702 49.1296 342.385 44.8212 308.081 31.147C273.777 17.6601 247.736 -5.00546 226.202 0.988739C204.417 6.98291 187.641 41.6368 161.6 58.8701C135.809 75.9161 100.754 75.5415 68.4527 86.4059C36.4021 97.4577 6.85543 119.749 1.09633 144.662C-4.66276 169.763 12.8649 197.111 39.6572 215.281C66.4495 233.263 102.256 241.88 134.056 251.808C165.857 261.736 193.65 273.162 215.435 265.482C237.47 257.802 253.495 231.016 282.541 219.964Z" fill="#3AA477"/>
</svg>
