<svg width="48" height="48" viewBox="0 0 48 48" fill="none" xmlns="http://www.w3.org/2000/svg">
<path d="M9.15 16.875C8.625 17.475 7.8 18.075 6.9 17.925C6.825 17.1 7.2 16.125 7.725 15.525C8.25 14.925 9.225 14.325 9.975 14.325C10.05 15.45 9.675 16.275 9.15 16.875ZM9.975 18.3C8.7 18.225 7.65 19.05 7.125 19.05C6.525 19.05 5.55 18.3 4.575 18.3C3.3 18.3 2.175 19.05 1.425 20.175C0 22.5 1.05 26.025 2.325 27.9C3 28.875 3.75 29.925 4.8 29.925C5.775 29.925 6.075 29.325 7.2 29.325C8.325 29.325 8.7 29.925 9.75 29.85C10.8 29.85 11.475 28.875 12.075 27.975C12.825 26.925 13.125 25.875 13.125 25.725C13.125 25.725 11.1 24.9 11.1 22.575C11.1 20.55 12.675 19.725 12.825 19.725C11.85 18.375 10.5 18.3 9.975 18.3ZM17.25 15.525V29.7H19.5V24.825H22.575C25.35 24.825 27.375 22.95 27.375 20.175C27.375 17.4 25.5 15.525 22.725 15.525H17.25ZM19.5 17.4H22.05C23.925 17.4 25.05 18.45 25.05 20.25C25.05 22.05 24 23.1 22.05 23.1H19.5V17.4ZM31.275 29.925C32.625 29.925 33.9 29.175 34.575 28.125H34.65V29.85H36.675V22.725C36.675 20.7 35.1 19.35 32.55 19.35C30.225 19.35 28.5 20.625 28.425 22.5H30.3C30.375 21.675 31.275 21 32.4 21C33.675 21 34.5 21.6 34.5 22.725V23.55L31.725 23.625C29.175 23.7 27.825 24.825 27.825 26.625C27.75 28.65 29.25 29.925 31.275 29.925ZM31.875 28.2C30.675 28.2 30 27.675 30 26.7C30 25.875 30.75 25.35 32.1 25.2L34.5 25.125V25.95C34.575 27.3 33.375 28.2 31.875 28.2ZM39.3 33.6C41.4 33.6 42.45 32.775 43.35 30.3L47.25 19.575H45L42.375 27.975H42.3L39.675 19.575H37.35L41.025 29.925L40.8 30.45C40.5 31.5 39.975 31.95 39 31.95C38.925 31.95 38.475 31.95 38.4 31.95V33.675C38.7 33.6 39.225 33.6 39.3 33.6Z" fill="black"/>
</svg>
