<svg width="36" height="36" viewBox="0 0 36 36" fill="none" xmlns="http://www.w3.org/2000/svg">
<path d="M35.5369 16.7536L21.3359 0.521739C20.7184 -0.173913 19.758 -0.173913 19.1405 0.521739C18.5231 1.21739 18.5231 2.29952 19.1405 2.99517L30.666 16.2126H1.50929C0.686041 16.2126 0 16.9855 0 17.913C0 18.8406 0.686041 19.6908 1.50929 19.6908H30.8032L19.1405 33.0628C18.5231 33.7585 18.5231 34.8406 19.1405 35.5362C19.415 35.8454 19.8266 36 20.2382 36C20.6498 36 21.0615 35.8454 21.3359 35.4589L35.5369 19.2271C36.1544 18.5314 36.1544 17.4493 35.5369 16.7536Z" fill="black"/>
</svg>
