<svg width="23" height="42" viewBox="0 0 23 42" fill="none" xmlns="http://www.w3.org/2000/svg">
<g clip-path="url(#clip0_215_1263)">
<path d="M19.5504 4.73515H3.40787C1.86535 4.73515 0.645691 5.99069 0.645691 7.49733V15.461C0.645691 17.0035 1.90122 18.2232 3.40787 18.2232H19.5504C21.093 18.2232 22.3126 16.9676 22.3126 15.461V7.49733C22.3485 5.95481 21.093 4.73515 19.5504 4.73515ZM20.7342 15.461C20.7342 16.1067 20.1961 16.6089 19.5863 16.6089H3.44374C2.79803 16.6089 2.29582 16.0708 2.29582 15.461V7.49733C2.29582 6.85162 2.83391 6.34941 3.44374 6.34941H19.5863C20.232 6.34941 20.7342 6.8875 20.7342 7.49733V15.461Z" fill="black"/>
<path d="M13.2369 8.03542C12.5194 8.03542 11.8379 8.25065 11.2998 8.64525C10.7976 8.28652 10.1877 8.14303 9.54204 8.14303C7.71254 8.14303 6.2059 9.64967 6.2059 11.4792C6.2059 13.3087 7.71254 14.8153 9.54204 14.8153C10.1519 14.8153 10.7617 14.6359 11.2998 14.3131C11.8737 14.7077 12.5194 14.9229 13.2369 14.9229C15.1381 14.9229 16.6806 13.3804 16.6806 11.4792C16.6806 9.57793 15.1381 8.03542 13.2369 8.03542ZM13.3086 14.062C12.8423 14.062 12.4118 13.9185 12.0531 13.7391C12.5912 13.1293 12.9499 12.376 12.9499 11.4792C12.914 10.5824 12.5912 9.79316 12.0531 9.21921C12.4477 9.00397 12.8423 8.89635 13.3086 8.89635C14.7077 8.89635 15.8914 10.0443 15.8914 11.4792C15.8556 12.9141 14.7077 14.062 13.3086 14.062Z" fill="black"/>
</g>
<g clip-path="url(#clip1_215_1263)">
<path d="M8.89636 33.2055H10.3313L11.1922 27.7529H9.79317L8.89636 33.2055Z" fill="black"/>
<path d="M14.062 29.9411C13.5598 29.69 13.2728 29.5106 13.2728 29.2595C13.2728 29.0443 13.5239 28.7932 14.0978 28.7932C14.5642 28.7932 14.887 28.9008 15.174 29.0084L15.3175 29.0443L15.4969 27.8964C15.2099 27.7887 14.7794 27.6811 14.2413 27.6811C12.8423 27.6811 11.8379 28.3986 11.8379 29.4747C11.8379 30.2639 12.5195 30.7303 13.0934 30.9814C13.6315 31.2325 13.8467 31.4119 13.8467 31.663C13.8467 32.0217 13.4163 32.201 12.9858 32.201C12.4118 32.201 12.089 32.1293 11.6227 31.9141L11.4433 31.8423L11.2281 33.0979C11.5509 33.2055 12.1607 33.349 12.7706 33.349C14.2772 33.3848 15.2458 32.6315 15.2458 31.4836C15.2099 30.8379 14.8512 30.3357 14.062 29.9411Z" fill="black"/>
<path d="M18.0079 27.7529C17.6851 27.7529 17.3981 27.8605 17.2546 28.2192L15.1382 33.2055H16.573V33.2413C16.573 33.2413 16.7883 32.5598 16.8959 32.4163C17.0394 32.4163 18.5102 32.4163 18.6895 32.4163C18.7254 32.5956 18.8689 33.2413 18.8689 33.2413H20.1962L19.0482 27.7887H18.0079V27.7529ZM17.2905 31.3042C17.3981 30.9814 17.8645 29.7976 17.8645 29.7976C17.8645 29.8335 18.0079 29.4747 18.0438 29.2954L18.1514 29.7617C18.1514 29.7617 18.4384 31.089 18.4743 31.3401C18.2591 31.3042 17.5775 31.3042 17.2905 31.3042Z" fill="black"/>
<path d="M7.74844 27.7529L6.34942 31.5195L5.5961 27.7529H2.76218L4.34056 28.9367L5.48848 33.2055H6.95925L9.25508 27.7529H7.74844Z" fill="black"/>
<path d="M19.5863 23.771H3.37201C1.86537 23.771 0.609833 24.9907 0.609833 26.5332V34.4251C0.609833 35.9318 1.82949 37.1873 3.37201 37.1873H19.5505C21.0571 37.1873 22.3126 35.9676 22.3126 34.4251V26.5332C22.3485 25.0266 21.093 23.771 19.5863 23.771ZM20.7342 34.4251C20.7342 35.0708 20.232 35.573 19.5863 35.573H3.37201C2.7263 35.573 2.22409 35.0708 2.22409 34.4251V26.5332C2.22409 25.8875 2.7263 25.3853 3.37201 25.3853H19.5505C20.1962 25.3853 20.6984 25.8875 20.6984 26.5332V34.4251H20.7342Z" fill="black"/>
</g>
<defs>
<clipPath id="clip0_215_1263">
<rect width="22.9583" height="22.9583" fill="white"/>
</clipPath>
<clipPath id="clip1_215_1263">
<rect width="22.9583" height="22.9583" fill="white" transform="translate(0 19)"/>
</clipPath>
</defs>
</svg>
