<svg width="24" height="24" viewBox="0 0 24 24" fill="none" xmlns="http://www.w3.org/2000/svg">
<g clip-path="url(#clip0_73_1716)">
<path d="M12 0.674988C5.73749 0.674988 0.674988 5.73749 0.674988 12C0.674988 18.2625 5.73749 23.3625 12 23.3625C18.2625 23.3625 23.3625 18.2625 23.3625 12C23.3625 5.73749 18.2625 0.674988 12 0.674988ZM12 21.675C6.67499 21.675 2.36249 17.325 2.36249 12C2.36249 6.67499 6.67499 2.36249 12 2.36249C17.325 2.36249 21.675 6.71249 21.675 12.0375C21.675 17.325 17.325 21.675 12 21.675Z" fill="black"/>
<path d="M15.225 8.51251L10.7625 12.8625L8.73749 10.875C8.39999 10.5375 7.87499 10.575 7.53749 10.875C7.19999 11.2125 7.23749 11.7375 7.53749 12.075L9.93749 14.4C10.1625 14.625 10.4625 14.7375 10.7625 14.7375C11.0625 14.7375 11.3625 14.625 11.5875 14.4L16.425 9.75001C16.7625 9.41251 16.7625 8.88751 16.425 8.55001C16.0875 8.21251 15.5625 8.21251 15.225 8.51251Z" fill="black"/>
</g>
<defs>
<clipPath id="clip0_73_1716">
<rect width="24" height="24" fill="white"/>
</clipPath>
</defs>
</svg>
