<svg width="40" height="40" viewBox="0 0 40 40" fill="none" xmlns="http://www.w3.org/2000/svg">
<path d="M22 20L37.25 4.75C37.8125 4.1875 37.8125 3.3125 37.25 2.75C36.6875 2.1875 35.8125 2.1875 35.25 2.75L20 18L4.75 2.75C4.1875 2.1875 3.3125 2.1875 2.75 2.75C2.1875 3.3125 2.1875 4.1875 2.75 4.75L18 20L2.75 35.25C2.1875 35.8125 2.1875 36.6875 2.75 37.25C3 37.5 3.375 37.6875 3.75 37.6875C4.125 37.6875 4.5 37.5625 4.75 37.25L20 22L35.25 37.25C35.5 37.5 35.875 37.6875 36.25 37.6875C36.625 37.6875 37 37.5625 37.25 37.25C37.8125 36.6875 37.8125 35.8125 37.25 35.25L22 20Z" fill="black"/>
</svg>
