<svg width="110" height="80" viewBox="0 0 110 80" fill="none" xmlns="http://www.w3.org/2000/svg">
<rect width="110" height="80" fill="#6FB7DE"/>
<path d="M15.144 27.208C14.3867 27.208 13.6747 27.0587 13.008 26.76C12.3413 26.456 11.7547 26.0373 11.248 25.504C10.7467 24.9707 10.352 24.3547 10.064 23.656C9.78133 22.952 9.64 22.2 9.64 21.4C9.64 20.5947 9.78133 19.8427 10.064 19.144C10.352 18.44 10.7467 17.824 11.248 17.296C11.7547 16.7627 12.3413 16.3467 13.008 16.048C13.6747 15.744 14.3867 15.592 15.144 15.592C16.0507 15.592 16.8853 15.8027 17.648 16.224C18.4107 16.64 19.0427 17.1973 19.544 17.896L17.4 19.048C17.1227 18.728 16.7893 18.472 16.4 18.28C16.0107 18.088 15.592 17.992 15.144 17.992C14.7173 17.992 14.3147 18.08 13.936 18.256C13.5627 18.432 13.232 18.6773 12.944 18.992C12.6613 19.3013 12.44 19.6613 12.28 20.072C12.12 20.4827 12.04 20.9253 12.04 21.4C12.04 21.8693 12.12 22.3093 12.28 22.72C12.44 23.1307 12.6613 23.4933 12.944 23.808C13.232 24.1173 13.5627 24.3627 13.936 24.544C14.3147 24.72 14.7173 24.808 15.144 24.808C15.592 24.808 16.0107 24.712 16.4 24.52C16.7893 24.3227 17.1227 24.0613 17.4 23.736L19.544 24.904C19.0427 25.5973 18.4107 26.1547 17.648 26.576C16.8853 26.9973 16.0507 27.208 15.144 27.208ZM25.065 27.208C24.329 27.208 23.657 27.0187 23.049 26.64C22.4463 26.2613 21.9637 25.7547 21.601 25.12C21.2437 24.48 21.065 23.7733 21.065 23C21.065 22.4133 21.169 21.8667 21.377 21.36C21.585 20.848 21.8703 20.4 22.233 20.016C22.601 19.6267 23.0277 19.3227 23.513 19.104C23.9983 18.8853 24.5157 18.776 25.065 18.776C25.801 18.776 26.4703 18.9653 27.073 19.344C27.681 19.7227 28.1637 20.232 28.521 20.872C28.8837 21.512 29.065 22.2213 29.065 23C29.065 23.5813 28.961 24.1253 28.753 24.632C28.545 25.1387 28.257 25.5867 27.889 25.976C27.5263 26.36 27.1023 26.6613 26.617 26.88C26.137 27.0987 25.6197 27.208 25.065 27.208ZM25.065 24.808C25.369 24.808 25.641 24.7253 25.881 24.56C26.1263 24.3947 26.3183 24.176 26.457 23.904C26.5957 23.6267 26.665 23.3253 26.665 23C26.665 22.664 26.5903 22.3573 26.441 22.08C26.297 21.8027 26.1023 21.584 25.857 21.424C25.617 21.2587 25.353 21.176 25.065 21.176C24.7663 21.176 24.4943 21.2613 24.249 21.432C24.009 21.5973 23.817 21.8187 23.673 22.096C23.5343 22.3733 23.465 22.6747 23.465 23C23.465 23.3413 23.537 23.648 23.681 23.92C23.8303 24.192 24.025 24.408 24.265 24.568C24.5103 24.728 24.777 24.808 25.065 24.808ZM31.2238 27V19H33.6238V19.504C33.8904 19.2747 34.1944 19.096 34.5358 18.968C34.8771 18.84 35.2371 18.776 35.6158 18.776C36.1491 18.776 36.6398 18.8987 37.0878 19.144C37.5358 19.384 37.8984 19.7067 38.1758 20.112C38.4584 19.7067 38.8211 19.384 39.2638 19.144C39.7118 18.8987 40.1998 18.776 40.7278 18.776C41.3038 18.776 41.8264 18.9173 42.2958 19.2C42.7651 19.4773 43.1384 19.8507 43.4158 20.32C43.6984 20.7893 43.8398 21.312 43.8398 21.888V27H41.4398V22.56C41.4398 22.3093 41.3784 22.0827 41.2558 21.88C41.1331 21.6773 40.9704 21.5147 40.7678 21.392C40.5651 21.2693 40.3384 21.208 40.0878 21.208C39.8371 21.208 39.6078 21.2693 39.3998 21.392C39.1971 21.5147 39.0344 21.6773 38.9118 21.88C38.7891 22.0827 38.7278 22.3093 38.7278 22.56V27H36.3278V22.56C36.3278 22.3093 36.2664 22.0827 36.1438 21.88C36.0264 21.6773 35.8638 21.5147 35.6558 21.392C35.4531 21.2693 35.2264 21.208 34.9758 21.208C34.7304 21.208 34.5038 21.2693 34.2958 21.392C34.0931 21.5147 33.9304 21.6773 33.8078 21.88C33.6851 22.0827 33.6238 22.3093 33.6238 22.56V27H31.2238ZM46.4025 27V19H48.8025V19.504C49.0692 19.2747 49.3732 19.096 49.7145 18.968C50.0558 18.84 50.4158 18.776 50.7945 18.776C51.3278 18.776 51.8185 18.8987 52.2665 19.144C52.7145 19.384 53.0772 19.7067 53.3545 20.112C53.6372 19.7067 53.9998 19.384 54.4425 19.144C54.8905 18.8987 55.3785 18.776 55.9065 18.776C56.4825 18.776 57.0052 18.9173 57.4745 19.2C57.9438 19.4773 58.3172 19.8507 58.5945 20.32C58.8772 20.7893 59.0185 21.312 59.0185 21.888V27H56.6185V22.56C56.6185 22.3093 56.5572 22.0827 56.4345 21.88C56.3118 21.6773 56.1492 21.5147 55.9465 21.392C55.7438 21.2693 55.5172 21.208 55.2665 21.208C55.0158 21.208 54.7865 21.2693 54.5785 21.392C54.3758 21.5147 54.2132 21.6773 54.0905 21.88C53.9678 22.0827 53.9065 22.3093 53.9065 22.56V27H51.5065V22.56C51.5065 22.3093 51.4452 22.0827 51.3225 21.88C51.2052 21.6773 51.0425 21.5147 50.8345 21.392C50.6318 21.2693 50.4052 21.208 50.1545 21.208C49.9092 21.208 49.6825 21.2693 49.4745 21.392C49.2718 21.5147 49.1092 21.6773 48.9865 21.88C48.8638 22.0827 48.8025 22.3093 48.8025 22.56V27H46.4025ZM61.2613 24.096V19H63.6613V23.424C63.6613 23.6747 63.7226 23.904 63.8453 24.112C63.9679 24.3147 64.1306 24.4773 64.3333 24.6C64.5413 24.7173 64.7679 24.776 65.0133 24.776C65.2639 24.776 65.4906 24.7173 65.6933 24.6C65.9013 24.4773 66.0639 24.3147 66.1813 24.112C66.3039 23.904 66.3653 23.6747 66.3653 23.424V19H68.7653L68.7733 27H66.3733L66.3653 26.48C66.0986 26.7093 65.7946 26.888 65.4533 27.016C65.1119 27.144 64.7519 27.208 64.3733 27.208C63.8026 27.208 63.2799 27.0693 62.8053 26.792C62.3359 26.5093 61.9599 26.1333 61.6773 25.664C61.3999 25.1947 61.2613 24.672 61.2613 24.096ZM78.8501 21.888V27H76.4501V22.56C76.4501 22.3093 76.3888 22.0827 76.2661 21.88C76.1435 21.672 75.9808 21.5093 75.7781 21.392C75.5755 21.2693 75.3488 21.208 75.0981 21.208C74.8475 21.208 74.6181 21.2693 74.4101 21.392C74.2075 21.5093 74.0448 21.672 73.9221 21.88C73.8048 22.0827 73.7461 22.3093 73.7461 22.56V27H71.3461L71.3381 19H73.7381L73.7461 19.504C74.0128 19.2747 74.3168 19.096 74.6581 18.968C74.9995 18.84 75.3595 18.776 75.7381 18.776C76.3141 18.776 76.8368 18.9173 77.3061 19.2C77.7755 19.4773 78.1488 19.8507 78.4261 20.32C78.7088 20.7893 78.8501 21.312 78.8501 21.888ZM81.4075 19H83.8075V27H81.4075V19ZM82.6235 18.168C82.2768 18.168 81.9862 18.0533 81.7515 17.824C81.5168 17.5947 81.3995 17.3093 81.3995 16.968C81.3995 16.632 81.5168 16.3493 81.7515 16.12C81.9862 15.8853 82.2742 15.768 82.6155 15.768C82.9515 15.768 83.2342 15.8853 83.4635 16.12C83.6982 16.3493 83.8155 16.632 83.8155 16.968C83.8155 17.3093 83.7008 17.5947 83.4715 17.824C83.2475 18.0533 82.9648 18.168 82.6235 18.168ZM91.08 21.4H89.72V27H87.32V21.4H86.28V19H87.32V16.488H89.72V19H91.08V21.4ZM98.5655 19H101.126L96.7415 31H94.1975L95.6375 27L92.7575 19H95.3815L96.8375 23.72L98.5655 19ZM14.056 46.208C13.4267 46.208 12.824 46.1093 12.248 45.912C11.672 45.7093 11.168 45.4213 10.736 45.048C10.304 44.6693 9.992 44.2187 9.8 43.696L12.056 42.864C12.1093 43.0187 12.2267 43.168 12.408 43.312C12.5947 43.456 12.8293 43.576 13.112 43.672C13.3947 43.7627 13.7093 43.808 14.056 43.808C14.376 43.808 14.6773 43.7627 14.96 43.672C15.2427 43.576 15.472 43.4453 15.648 43.28C15.824 43.1147 15.912 42.9227 15.912 42.704C15.912 42.48 15.8187 42.296 15.632 42.152C15.4507 42.0027 15.216 41.8853 14.928 41.8C14.6453 41.7093 14.3547 41.6427 14.056 41.6C13.2453 41.4827 12.5173 41.2907 11.872 41.024C11.232 40.752 10.7253 40.3787 10.352 39.904C9.984 39.4293 9.8 38.8267 9.8 38.096C9.8 37.3973 9.99733 36.7867 10.392 36.264C10.7867 35.736 11.3067 35.3253 11.952 35.032C12.6027 34.7387 13.304 34.592 14.056 34.592C14.6853 34.592 15.288 34.6933 15.864 34.896C16.4453 35.0933 16.952 35.3813 17.384 35.76C17.816 36.1387 18.1253 36.592 18.312 37.12L16.056 37.936C16.0027 37.7813 15.8827 37.6347 15.696 37.496C15.5147 37.352 15.2827 37.2347 15 37.144C14.7173 37.0533 14.4027 37.008 14.056 37.008C13.7467 37.0027 13.4507 37.048 13.168 37.144C12.8853 37.24 12.6533 37.3707 12.472 37.536C12.2907 37.7013 12.2 37.888 12.2 38.096C12.2 38.384 12.2853 38.6 12.456 38.744C12.6267 38.8827 12.8507 38.9813 13.128 39.04C13.4107 39.0987 13.72 39.152 14.056 39.2C14.824 39.312 15.5307 39.512 16.176 39.8C16.8213 40.088 17.3387 40.472 17.728 40.952C18.1173 41.432 18.312 42.016 18.312 42.704C18.312 43.4027 18.1147 44.016 17.72 44.544C17.3307 45.0667 16.8133 45.4747 16.168 45.768C15.5227 46.0613 14.8187 46.208 14.056 46.208ZM25.4213 43.376L27.5813 44.544C27.2133 45.0453 26.7519 45.448 26.1973 45.752C25.6426 46.056 25.0373 46.208 24.3812 46.208C23.6453 46.208 22.9733 46.0187 22.3653 45.64C21.7626 45.2613 21.2799 44.7547 20.9172 44.12C20.5599 43.48 20.3812 42.7733 20.3812 42C20.3812 41.4133 20.4852 40.8667 20.6932 40.36C20.9012 39.848 21.1866 39.4 21.5493 39.016C21.9172 38.6267 22.3439 38.3227 22.8293 38.104C23.3146 37.8853 23.8319 37.776 24.3812 37.776C25.0373 37.776 25.6426 37.928 26.1973 38.232C26.7519 38.536 27.2133 38.944 27.5813 39.456L25.4213 40.624C25.2773 40.48 25.1146 40.3707 24.9332 40.296C24.7572 40.216 24.5732 40.176 24.3812 40.176C24.0773 40.176 23.8053 40.2613 23.5653 40.432C23.3253 40.6027 23.1332 40.8267 22.9892 41.104C22.8506 41.3813 22.7812 41.68 22.7812 42C22.7812 42.3147 22.8506 42.6107 22.9892 42.888C23.1332 43.16 23.3253 43.3813 23.5653 43.552C23.8053 43.7227 24.0773 43.808 24.3812 43.808C24.5732 43.808 24.7572 43.7707 24.9332 43.696C25.1146 43.616 25.2773 43.5093 25.4213 43.376ZM29.7312 38H32.1312V46H29.7312V38ZM30.9472 37.168C30.6006 37.168 30.3099 37.0533 30.0752 36.824C29.8406 36.5947 29.7232 36.3093 29.7232 35.968C29.7232 35.632 29.8406 35.3493 30.0752 35.12C30.3099 34.8853 30.5979 34.768 30.9392 34.768C31.2752 34.768 31.5579 34.8853 31.7872 35.12C32.0219 35.3493 32.1393 35.632 32.1393 35.968C32.1393 36.3093 32.0246 36.5947 31.7952 36.824C31.5712 37.0533 31.2886 37.168 30.9472 37.168ZM38.4494 46.208C37.7134 46.208 37.0414 46.0187 36.4334 45.64C35.8307 45.2613 35.348 44.752 34.9854 44.112C34.628 43.472 34.4494 42.7653 34.4494 41.992C34.4494 41.4107 34.5534 40.8667 34.7614 40.36C34.9694 39.848 35.2547 39.4 35.6174 39.016C35.9854 38.6267 36.412 38.3227 36.8974 38.104C37.3827 37.8853 37.9 37.776 38.4494 37.776C39.0894 37.776 39.6734 37.9173 40.2014 38.2C40.7347 38.4773 41.1827 38.856 41.5454 39.336C41.9134 39.8107 42.1747 40.3467 42.3294 40.944C42.484 41.5413 42.5 42.1573 42.3774 42.792H37.0414C37.116 42.9787 37.2147 43.1493 37.3374 43.304C37.4654 43.4533 37.62 43.5733 37.8014 43.664C37.988 43.7547 38.204 43.8027 38.4494 43.808C38.684 43.8133 38.9 43.7627 39.0974 43.656C39.3 43.5493 39.476 43.4053 39.6254 43.224L42.0734 43.792C41.748 44.5013 41.2627 45.0827 40.6174 45.536C39.972 45.984 39.2494 46.208 38.4494 46.208ZM36.9534 41.032H39.9534C39.8787 40.8027 39.7667 40.6 39.6174 40.424C39.468 40.248 39.292 40.1093 39.0894 40.008C38.892 39.9067 38.6787 39.856 38.4494 39.856C38.2254 39.856 38.012 39.9067 37.8094 40.008C37.612 40.1093 37.4387 40.248 37.2894 40.424C37.1454 40.6 37.0334 40.8027 36.9534 41.032ZM52.2801 40.888V46H49.8801V41.56C49.8801 41.3093 49.8188 41.0827 49.6961 40.88C49.5735 40.672 49.4108 40.5093 49.2081 40.392C49.0055 40.2693 48.7788 40.208 48.5281 40.208C48.2775 40.208 48.0481 40.2693 47.8401 40.392C47.6375 40.5093 47.4748 40.672 47.3521 40.88C47.2348 41.0827 47.1761 41.3093 47.1761 41.56V46H44.7761L44.7681 38H47.1681L47.1761 38.504C47.4428 38.2747 47.7468 38.096 48.0881 37.968C48.4295 37.84 48.7895 37.776 49.1681 37.776C49.7441 37.776 50.2668 37.9173 50.7361 38.2C51.2055 38.4773 51.5788 38.8507 51.8561 39.32C52.1388 39.7893 52.2801 40.312 52.2801 40.888ZM59.4012 43.376L61.5612 44.544C61.1932 45.0453 60.7319 45.448 60.1772 45.752C59.6226 46.056 59.0172 46.208 58.3612 46.208C57.6252 46.208 56.9532 46.0187 56.3452 45.64C55.7426 45.2613 55.2599 44.7547 54.8972 44.12C54.5399 43.48 54.3612 42.7733 54.3612 42C54.3612 41.4133 54.4652 40.8667 54.6732 40.36C54.8812 39.848 55.1666 39.4 55.5292 39.016C55.8972 38.6267 56.3239 38.3227 56.8092 38.104C57.2946 37.8853 57.8119 37.776 58.3612 37.776C59.0172 37.776 59.6226 37.928 60.1772 38.232C60.7319 38.536 61.1932 38.944 61.5612 39.456L59.4012 40.624C59.2572 40.48 59.0946 40.3707 58.9132 40.296C58.7372 40.216 58.5532 40.176 58.3612 40.176C58.0572 40.176 57.7852 40.2613 57.5452 40.432C57.3052 40.6027 57.1132 40.8267 56.9692 41.104C56.8306 41.3813 56.7612 41.68 56.7612 42C56.7612 42.3147 56.8306 42.6107 56.9692 42.888C57.1132 43.16 57.3052 43.3813 57.5452 43.552C57.7852 43.7227 58.0572 43.808 58.3612 43.808C58.5532 43.808 58.7372 43.7707 58.9132 43.696C59.0946 43.616 59.2572 43.5093 59.4012 43.376ZM67.3094 46.208C66.5734 46.208 65.9014 46.0187 65.2934 45.64C64.6907 45.2613 64.208 44.752 63.8454 44.112C63.488 43.472 63.3094 42.7653 63.3094 41.992C63.3094 41.4107 63.4134 40.8667 63.6214 40.36C63.8294 39.848 64.1147 39.4 64.4774 39.016C64.8454 38.6267 65.272 38.3227 65.7574 38.104C66.2427 37.8853 66.76 37.776 67.3094 37.776C67.9494 37.776 68.5334 37.9173 69.0614 38.2C69.5947 38.4773 70.0427 38.856 70.4054 39.336C70.7734 39.8107 71.0347 40.3467 71.1894 40.944C71.344 41.5413 71.36 42.1573 71.2374 42.792H65.9014C65.976 42.9787 66.0747 43.1493 66.1974 43.304C66.3254 43.4533 66.48 43.5733 66.6614 43.664C66.848 43.7547 67.064 43.8027 67.3094 43.808C67.544 43.8133 67.76 43.7627 67.9574 43.656C68.16 43.5493 68.336 43.4053 68.4854 43.224L70.9334 43.792C70.608 44.5013 70.1227 45.0827 69.4774 45.536C68.832 45.984 68.1094 46.208 67.3094 46.208ZM65.8134 41.032H68.8134C68.7387 40.8027 68.6267 40.6 68.4774 40.424C68.328 40.248 68.152 40.1093 67.9494 40.008C67.752 39.9067 67.5387 39.856 67.3094 39.856C67.0854 39.856 66.872 39.9067 66.6694 40.008C66.472 40.1093 66.2987 40.248 66.1494 40.424C66.0054 40.6 65.8934 40.8027 65.8134 41.032ZM9.96 65L12.136 53.8H14.184L16.696 60.408L19.208 53.8H21.256L23.432 65H20.984L19.816 58.952L17.528 65H15.864L13.576 58.952L12.408 65H9.96ZM25.0306 62.096V57H27.4306V61.424C27.4306 61.6747 27.492 61.904 27.6146 62.112C27.7373 62.3147 27.9 62.4773 28.1026 62.6C28.3106 62.7173 28.5373 62.776 28.7826 62.776C29.0333 62.776 29.26 62.7173 29.4626 62.6C29.6706 62.4773 29.8333 62.3147 29.9506 62.112C30.0733 61.904 30.1346 61.6747 30.1346 61.424V57H32.5346L32.5426 65H30.1426L30.1346 64.48C29.868 64.7093 29.564 64.888 29.2226 65.016C28.8813 65.144 28.5213 65.208 28.1426 65.208C27.572 65.208 27.0493 65.0693 26.5746 64.792C26.1053 64.5093 25.7293 64.1333 25.4466 63.664C25.1693 63.1947 25.0306 62.672 25.0306 62.096ZM36.4515 65.144C36.0462 65.1067 35.6568 65.0187 35.2835 64.88C34.9102 64.7413 34.5768 64.552 34.2835 64.312C33.9902 64.072 33.7582 63.7787 33.5875 63.432L35.6035 62.568C35.6568 62.6267 35.7315 62.7013 35.8275 62.792C35.9235 62.8773 36.0435 62.9547 36.1875 63.024C36.3368 63.0933 36.5155 63.128 36.7235 63.128C36.8622 63.128 36.9955 63.1147 37.1235 63.088C37.2568 63.056 37.3635 63.0027 37.4435 62.928C37.5288 62.8533 37.5715 62.7493 37.5715 62.616C37.5715 62.4667 37.5155 62.3547 37.4035 62.28C37.2968 62.2 37.1662 62.144 37.0115 62.112C36.8568 62.0747 36.7128 62.0453 36.5795 62.024C36.1048 61.9493 35.6488 61.8 35.2115 61.576C34.7795 61.3467 34.4248 61.0507 34.1475 60.688C33.8702 60.32 33.7315 59.8907 33.7315 59.4C33.7315 58.8507 33.8728 58.376 34.1555 57.976C34.4382 57.576 34.8062 57.2693 35.2595 57.056C35.7182 56.8373 36.2115 56.728 36.7395 56.728C37.3635 56.728 37.9395 56.856 38.4675 57.112C39.0008 57.368 39.4382 57.736 39.7795 58.216L37.8915 59.336C37.8275 59.256 37.7475 59.176 37.6515 59.096C37.5608 59.0107 37.4542 58.9387 37.3315 58.88C37.2142 58.816 37.0862 58.776 36.9475 58.76C36.7608 58.744 36.5928 58.752 36.4435 58.784C36.2995 58.8107 36.1848 58.8693 36.0995 58.96C36.0142 59.0453 35.9715 59.1707 35.9715 59.336C35.9715 59.4907 36.0462 59.6027 36.1955 59.672C36.3448 59.7413 36.5128 59.792 36.6995 59.824C36.8862 59.856 37.0382 59.8907 37.1555 59.928C37.6142 60.0773 38.0462 60.272 38.4515 60.512C38.8568 60.752 39.1822 61.0427 39.4275 61.384C39.6782 61.7253 39.7955 62.1253 39.7795 62.584C39.7795 63.1173 39.6195 63.5867 39.2995 63.992C38.9795 64.3973 38.5662 64.704 38.0595 64.912C37.5528 65.12 37.0168 65.1973 36.4515 65.144ZM44.48 65.208C43.744 65.208 43.072 65.0187 42.464 64.64C41.8613 64.2613 41.3787 63.752 41.016 63.112C40.6587 62.472 40.48 61.7653 40.48 60.992C40.48 60.4107 40.584 59.8667 40.792 59.36C41 58.848 41.2853 58.4 41.648 58.016C42.016 57.6267 42.4427 57.3227 42.928 57.104C43.4133 56.8853 43.9307 56.776 44.48 56.776C45.12 56.776 45.704 56.9173 46.232 57.2C46.7653 57.4773 47.2133 57.856 47.576 58.336C47.944 58.8107 48.2053 59.3467 48.36 59.944C48.5147 60.5413 48.5307 61.1573 48.408 61.792H43.072C43.1467 61.9787 43.2453 62.1493 43.368 62.304C43.496 62.4533 43.6507 62.5733 43.832 62.664C44.0187 62.7547 44.2347 62.8027 44.48 62.808C44.7147 62.8133 44.9307 62.7627 45.128 62.656C45.3307 62.5493 45.5067 62.4053 45.656 62.224L48.104 62.792C47.7787 63.5013 47.2933 64.0827 46.648 64.536C46.0027 64.984 45.28 65.208 44.48 65.208ZM42.984 60.032H45.984C45.9093 59.8027 45.7973 59.6 45.648 59.424C45.4987 59.248 45.3227 59.1093 45.12 59.008C44.9227 58.9067 44.7093 58.856 44.48 58.856C44.256 58.856 44.0427 58.9067 43.84 59.008C43.6427 59.1093 43.4693 59.248 43.32 59.424C43.176 59.6 43.064 59.8027 42.984 60.032ZM49.1244 62.096V57H51.5244V61.424C51.5244 61.6747 51.5857 61.904 51.7084 62.112C51.831 62.3147 51.9937 62.4773 52.1964 62.6C52.4044 62.7173 52.631 62.776 52.8764 62.776C53.127 62.776 53.3537 62.7173 53.5564 62.6C53.7644 62.4773 53.927 62.3147 54.0444 62.112C54.167 61.904 54.2284 61.6747 54.2284 61.424V57H56.6284L56.6364 65H54.2364L54.2284 64.48C53.9617 64.7093 53.6577 64.888 53.3164 65.016C52.975 65.144 52.615 65.208 52.2364 65.208C51.6657 65.208 51.143 65.0693 50.6684 64.792C50.199 64.5093 49.823 64.1333 49.5404 63.664C49.263 63.1947 49.1244 62.672 49.1244 62.096ZM58.2413 65V57H60.6413V57.504C60.9079 57.2747 61.2119 57.096 61.5533 56.968C61.8946 56.84 62.2546 56.776 62.6333 56.776C63.1666 56.776 63.6573 56.8987 64.1053 57.144C64.5533 57.384 64.9159 57.7067 65.1933 58.112C65.4759 57.7067 65.8386 57.384 66.2812 57.144C66.7293 56.8987 67.2173 56.776 67.7453 56.776C68.3213 56.776 68.8439 56.9173 69.3133 57.2C69.7826 57.4773 70.1559 57.8507 70.4333 58.32C70.7159 58.7893 70.8573 59.312 70.8573 59.888V65H68.4573V60.56C68.4573 60.3093 68.3959 60.0827 68.2733 59.88C68.1506 59.6773 67.9879 59.5147 67.7853 59.392C67.5826 59.2693 67.3559 59.208 67.1053 59.208C66.8546 59.208 66.6253 59.2693 66.4173 59.392C66.2146 59.5147 66.0519 59.6773 65.9293 59.88C65.8066 60.0827 65.7453 60.3093 65.7453 60.56V65H63.3453V60.56C63.3453 60.3093 63.2839 60.0827 63.1613 59.88C63.0439 59.6773 62.8813 59.5147 62.6733 59.392C62.4706 59.2693 62.2439 59.208 61.9933 59.208C61.7479 59.208 61.5213 59.2693 61.3133 59.392C61.1106 59.5147 60.9479 59.6773 60.8253 59.88C60.7026 60.0827 60.6413 60.3093 60.6413 60.56V65H58.2413Z" fill="black"/>
<path d="M93.2257 35.7379H85.7299C84.9728 35.7379 84.359 36.3729 84.359 37.156C84.359 37.9392 84.9728 38.5741 85.7299 38.5741H93.2257C93.9828 38.5741 94.5965 37.9392 94.5965 37.156C94.5965 36.3729 93.9827 35.7379 93.2257 35.7379Z" fill="#C7F5FF"/>
<path d="M92.5785 51.6001V38.5741H86.377V51.6001L82.8953 55.8919H96.0603L92.5785 51.6001Z" fill="white"/>
<path d="M96.0603 55.8919H82.8953L79.1574 60.4995C77.9484 61.9898 78.9726 64.2621 80.8533 64.2621H98.1024C99.9831 64.2621 101.007 61.9898 99.7983 60.4995L96.0603 55.8919Z" fill="#FF9A56"/>
<path d="M100.345 60.0252C99.6431 59.1604 93.9529 52.1463 93.2919 51.3314V39.3104C94.4105 39.274 95.3099 38.3219 95.3099 37.1561C95.3098 35.9672 94.3748 35 93.2257 35H85.7299C84.5807 35 83.6457 35.9672 83.6457 37.156C83.6457 38.3219 84.545 39.2739 85.6636 39.3103V51.3313C84.5156 52.7463 79.3513 59.1124 78.6109 60.025C77.0115 61.9968 78.3684 65 80.8533 65H98.1024C100.591 65 101.942 61.9943 100.345 60.0252ZM85.0725 37.156C85.0725 36.7809 85.3674 36.4759 85.73 36.4759H93.2258C93.5883 36.4759 93.8832 36.781 93.8832 37.156C93.8832 37.531 93.5883 37.8362 93.2258 37.8362C92.5073 37.8362 86.4646 37.8362 85.73 37.8362C85.3674 37.8362 85.0725 37.5311 85.0725 37.156ZM86.9234 52.0744C87.0312 51.9414 87.0904 51.7735 87.0904 51.6V49.6438H88.7364C89.1303 49.6438 89.4497 49.3135 89.4497 48.9058C89.4497 48.4982 89.1303 48.1679 88.7364 48.1679H87.0904V46.9821H88.7364C89.1303 46.9821 89.4497 46.6518 89.4497 46.2441C89.4497 45.8365 89.1303 45.5062 88.7364 45.5062H87.0904V44.3204H88.7364C89.1303 44.3204 89.4497 43.9902 89.4497 43.5825C89.4497 43.1749 89.1303 42.8446 88.7364 42.8446H87.0904V39.3121H91.8651V51.6001C91.8651 51.7736 91.9242 51.9416 92.032 52.0745L94.5304 55.154H84.4253L86.9234 52.0744ZM98.1024 63.5241H80.8533C79.5756 63.5241 78.8819 61.987 79.7038 60.9738L83.2279 56.6298H95.7277L99.2518 60.9738C100.073 61.9863 99.3809 63.5241 98.1024 63.5241Z" fill="black"/>
<path d="M92.9452 57.8503C91.7583 57.8503 90.7927 58.8491 90.7927 60.0769C90.7927 61.3047 91.7583 62.3036 92.9452 62.3036C94.1321 62.3036 95.0976 61.3047 95.0976 60.0769C95.0976 58.8492 94.1321 57.8503 92.9452 57.8503ZM92.9452 60.8278C92.545 60.8278 92.2194 60.491 92.2194 60.077C92.2194 59.663 92.545 59.3262 92.9452 59.3262C93.3454 59.3262 93.671 59.663 93.671 60.077C93.671 60.491 93.3454 60.8278 92.9452 60.8278Z" fill="black"/>
</svg>
