<svg width="80" height="48" viewBox="0 0 80 48" fill="none" xmlns="http://www.w3.org/2000/svg">
<rect width="80" height="48" fill="#6FB7DE"/>
<path d="M9.608 15.156C9.04 15.156 8.506 15.044 8.006 14.82C7.506 14.592 7.066 14.278 6.686 13.878C6.31 13.478 6.014 13.016 5.798 12.492C5.586 11.964 5.48 11.4 5.48 10.8C5.48 10.196 5.586 9.632 5.798 9.108C6.014 8.58 6.31 8.118 6.686 7.722C7.066 7.322 7.506 7.01 8.006 6.786C8.506 6.558 9.04 6.444 9.608 6.444C10.288 6.444 10.914 6.602 11.486 6.918C12.058 7.23 12.532 7.648 12.908 8.172L11.3 9.036C11.092 8.796 10.842 8.604 10.55 8.46C10.258 8.316 9.944 8.244 9.608 8.244C9.288 8.244 8.986 8.31 8.702 8.442C8.422 8.574 8.174 8.758 7.958 8.994C7.746 9.226 7.58 9.496 7.46 9.804C7.34 10.112 7.28 10.444 7.28 10.8C7.28 11.152 7.34 11.482 7.46 11.79C7.58 12.098 7.746 12.37 7.958 12.606C8.174 12.838 8.422 13.022 8.702 13.158C8.986 13.29 9.288 13.356 9.608 13.356C9.944 13.356 10.258 13.284 10.55 13.14C10.842 12.992 11.092 12.796 11.3 12.552L12.908 13.428C12.532 13.948 12.058 14.366 11.486 14.682C10.914 14.998 10.288 15.156 9.608 15.156ZM17.0488 15.156C16.4968 15.156 15.9928 15.014 15.5368 14.73C15.0848 14.446 14.7228 14.066 14.4508 13.59C14.1828 13.11 14.0488 12.58 14.0488 12C14.0488 11.56 14.1268 11.15 14.2828 10.77C14.4388 10.386 14.6528 10.05 14.9248 9.762C15.2008 9.47 15.5208 9.242 15.8848 9.078C16.2488 8.914 16.6368 8.832 17.0488 8.832C17.6008 8.832 18.1028 8.974 18.5548 9.258C19.0108 9.542 19.3728 9.924 19.6408 10.404C19.9128 10.884 20.0488 11.416 20.0488 12C20.0488 12.436 19.9708 12.844 19.8148 13.224C19.6588 13.604 19.4428 13.94 19.1668 14.232C18.8948 14.52 18.5768 14.746 18.2128 14.91C17.8528 15.074 17.4648 15.156 17.0488 15.156ZM17.0488 13.356C17.2768 13.356 17.4808 13.294 17.6608 13.17C17.8448 13.046 17.9888 12.882 18.0928 12.678C18.1968 12.47 18.2488 12.244 18.2488 12C18.2488 11.748 18.1928 11.518 18.0808 11.31C17.9728 11.102 17.8268 10.938 17.6428 10.818C17.4628 10.694 17.2648 10.632 17.0488 10.632C16.8248 10.632 16.6208 10.696 16.4368 10.824C16.2568 10.948 16.1128 11.114 16.0048 11.322C15.9008 11.53 15.8488 11.756 15.8488 12C15.8488 12.256 15.9028 12.486 16.0108 12.69C16.1228 12.894 16.2688 13.056 16.4488 13.176C16.6328 13.296 16.8328 13.356 17.0488 13.356ZM21.6678 15V9H23.4678V9.378C23.6678 9.206 23.8958 9.072 24.1518 8.976C24.4078 8.88 24.6778 8.832 24.9618 8.832C25.3618 8.832 25.7298 8.924 26.0658 9.108C26.4018 9.288 26.6738 9.53 26.8818 9.834C27.0938 9.53 27.3658 9.288 27.6978 9.108C28.0338 8.924 28.3998 8.832 28.7958 8.832C29.2278 8.832 29.6198 8.938 29.9718 9.15C30.3238 9.358 30.6038 9.638 30.8118 9.99C31.0238 10.342 31.1298 10.734 31.1298 11.166V15H29.3298V11.67C29.3298 11.482 29.2838 11.312 29.1918 11.16C29.0998 11.008 28.9778 10.886 28.8258 10.794C28.6738 10.702 28.5038 10.656 28.3158 10.656C28.1278 10.656 27.9558 10.702 27.7998 10.794C27.6478 10.886 27.5258 11.008 27.4338 11.16C27.3418 11.312 27.2958 11.482 27.2958 11.67V15H25.4958V11.67C25.4958 11.482 25.4498 11.312 25.3578 11.16C25.2698 11.008 25.1478 10.886 24.9918 10.794C24.8398 10.702 24.6698 10.656 24.4818 10.656C24.2978 10.656 24.1278 10.702 23.9718 10.794C23.8198 10.886 23.6978 11.008 23.6058 11.16C23.5138 11.312 23.4678 11.482 23.4678 11.67V15H21.6678ZM33.0519 15V9H34.8519V9.378C35.0519 9.206 35.2799 9.072 35.5359 8.976C35.7919 8.88 36.0619 8.832 36.3459 8.832C36.7459 8.832 37.1139 8.924 37.4499 9.108C37.7859 9.288 38.0579 9.53 38.2659 9.834C38.4779 9.53 38.7499 9.288 39.0819 9.108C39.4179 8.924 39.7839 8.832 40.1799 8.832C40.6119 8.832 41.0039 8.938 41.3559 9.15C41.7079 9.358 41.9879 9.638 42.1959 9.99C42.4079 10.342 42.5139 10.734 42.5139 11.166V15H40.7139V11.67C40.7139 11.482 40.6679 11.312 40.5759 11.16C40.4839 11.008 40.3619 10.886 40.2099 10.794C40.0579 10.702 39.8879 10.656 39.6999 10.656C39.5119 10.656 39.3399 10.702 39.1839 10.794C39.0319 10.886 38.9099 11.008 38.8179 11.16C38.7259 11.312 38.6799 11.482 38.6799 11.67V15H36.8799V11.67C36.8799 11.482 36.8339 11.312 36.7419 11.16C36.6539 11.008 36.5319 10.886 36.3759 10.794C36.2239 10.702 36.0539 10.656 35.8659 10.656C35.6819 10.656 35.5119 10.702 35.3559 10.794C35.2039 10.886 35.0819 11.008 34.9899 11.16C34.8979 11.312 34.8519 11.482 34.8519 11.67V15H33.0519ZM44.1959 12.822V9H45.9959V12.318C45.9959 12.506 46.0419 12.678 46.1339 12.834C46.2259 12.986 46.3479 13.108 46.4999 13.2C46.6559 13.288 46.8259 13.332 47.0099 13.332C47.1979 13.332 47.3679 13.288 47.5199 13.2C47.6759 13.108 47.7979 12.986 47.8859 12.834C47.9779 12.678 48.0239 12.506 48.0239 12.318V9H49.8239L49.8299 15H48.0299L48.0239 14.61C47.8239 14.782 47.5959 14.916 47.3399 15.012C47.0839 15.108 46.8139 15.156 46.5299 15.156C46.1019 15.156 45.7099 15.052 45.3539 14.844C45.0019 14.632 44.7199 14.35 44.5079 13.998C44.2999 13.646 44.1959 13.254 44.1959 12.822ZM57.3876 11.166V15H55.5876V11.67C55.5876 11.482 55.5416 11.312 55.4496 11.16C55.3576 11.004 55.2356 10.882 55.0836 10.794C54.9316 10.702 54.7616 10.656 54.5736 10.656C54.3856 10.656 54.2136 10.702 54.0576 10.794C53.9056 10.882 53.7836 11.004 53.6916 11.16C53.6036 11.312 53.5596 11.482 53.5596 11.67V15H51.7596L51.7536 9H53.5536L53.5596 9.378C53.7596 9.206 53.9876 9.072 54.2436 8.976C54.4996 8.88 54.7696 8.832 55.0536 8.832C55.4856 8.832 55.8776 8.938 56.2296 9.15C56.5816 9.358 56.8616 9.638 57.0696 9.99C57.2816 10.342 57.3876 10.734 57.3876 11.166ZM59.3056 9H61.1056V15H59.3056V9ZM60.2176 8.376C59.9576 8.376 59.7396 8.29 59.5636 8.118C59.3876 7.946 59.2996 7.732 59.2996 7.476C59.2996 7.224 59.3876 7.012 59.5636 6.84C59.7396 6.664 59.9556 6.576 60.2116 6.576C60.4636 6.576 60.6756 6.664 60.8476 6.84C61.0236 7.012 61.1116 7.224 61.1116 7.476C61.1116 7.732 61.0256 7.946 60.8536 8.118C60.6856 8.29 60.4736 8.376 60.2176 8.376ZM66.56 10.8H65.54V15H63.74V10.8H62.96V9H63.74V7.116H65.54V9H66.56V10.8ZM72.1741 9H74.0941L70.8061 18H68.8981L69.9781 15L67.8181 9H69.7861L70.8781 12.54L72.1741 9ZM8.792 29.156C8.32 29.156 7.868 29.082 7.436 28.934C7.004 28.782 6.626 28.566 6.302 28.286C5.978 28.002 5.744 27.664 5.6 27.272L7.292 26.648C7.332 26.764 7.42 26.876 7.556 26.984C7.696 27.092 7.872 27.182 8.084 27.254C8.296 27.322 8.532 27.356 8.792 27.356C9.032 27.356 9.258 27.322 9.47 27.254C9.682 27.182 9.854 27.084 9.986 26.96C10.118 26.836 10.184 26.692 10.184 26.528C10.184 26.36 10.114 26.222 9.974 26.114C9.838 26.002 9.662 25.914 9.446 25.85C9.234 25.782 9.016 25.732 8.792 25.7C8.184 25.612 7.638 25.468 7.154 25.268C6.674 25.064 6.294 24.784 6.014 24.428C5.738 24.072 5.6 23.62 5.6 23.072C5.6 22.548 5.748 22.09 6.044 21.698C6.34 21.302 6.73 20.994 7.214 20.774C7.702 20.554 8.228 20.444 8.792 20.444C9.264 20.444 9.716 20.52 10.148 20.672C10.584 20.82 10.964 21.036 11.288 21.32C11.612 21.604 11.844 21.944 11.984 22.34L10.292 22.952C10.252 22.836 10.162 22.726 10.022 22.622C9.886 22.514 9.712 22.426 9.5 22.358C9.288 22.29 9.052 22.256 8.792 22.256C8.56 22.252 8.338 22.286 8.126 22.358C7.914 22.43 7.74 22.528 7.604 22.652C7.468 22.776 7.4 22.916 7.4 23.072C7.4 23.288 7.464 23.45 7.592 23.558C7.72 23.662 7.888 23.736 8.096 23.78C8.308 23.824 8.54 23.864 8.792 23.9C9.368 23.984 9.898 24.134 10.382 24.35C10.866 24.566 11.254 24.854 11.546 25.214C11.838 25.574 11.984 26.012 11.984 26.528C11.984 27.052 11.836 27.512 11.54 27.908C11.248 28.3 10.86 28.606 10.376 28.826C9.892 29.046 9.364 29.156 8.792 29.156ZM17.3159 27.032L18.9359 27.908C18.6599 28.284 18.3139 28.586 17.8979 28.814C17.4819 29.042 17.0279 29.156 16.5359 29.156C15.9839 29.156 15.4799 29.014 15.0239 28.73C14.5719 28.446 14.2099 28.066 13.9379 27.59C13.6699 27.11 13.5359 26.58 13.5359 26C13.5359 25.56 13.6139 25.15 13.7699 24.77C13.9259 24.386 14.1399 24.05 14.4119 23.762C14.6879 23.47 15.0079 23.242 15.3719 23.078C15.7359 22.914 16.1239 22.832 16.5359 22.832C17.0279 22.832 17.4819 22.946 17.8979 23.174C18.3139 23.402 18.6599 23.708 18.9359 24.092L17.3159 24.968C17.2079 24.86 17.0859 24.778 16.9499 24.722C16.8179 24.662 16.6799 24.632 16.5359 24.632C16.3079 24.632 16.1039 24.696 15.9239 24.824C15.7439 24.952 15.5999 25.12 15.4919 25.328C15.3879 25.536 15.3359 25.76 15.3359 26C15.3359 26.236 15.3879 26.458 15.4919 26.666C15.5999 26.87 15.7439 27.036 15.9239 27.164C16.1039 27.292 16.3079 27.356 16.5359 27.356C16.6799 27.356 16.8179 27.328 16.9499 27.272C17.0859 27.212 17.2079 27.132 17.3159 27.032ZM20.5484 23H22.3484V29H20.5484V23ZM21.4604 22.376C21.2004 22.376 20.9824 22.29 20.8064 22.118C20.6304 21.946 20.5424 21.732 20.5424 21.476C20.5424 21.224 20.6304 21.012 20.8064 20.84C20.9824 20.664 21.1984 20.576 21.4544 20.576C21.7064 20.576 21.9184 20.664 22.0904 20.84C22.2664 21.012 22.3544 21.224 22.3544 21.476C22.3544 21.732 22.2684 21.946 22.0964 22.118C21.9284 22.29 21.7164 22.376 21.4604 22.376ZM27.087 29.156C26.535 29.156 26.031 29.014 25.575 28.73C25.123 28.446 24.761 28.064 24.489 27.584C24.221 27.104 24.087 26.574 24.087 25.994C24.087 25.558 24.165 25.15 24.321 24.77C24.477 24.386 24.691 24.05 24.963 23.762C25.239 23.47 25.559 23.242 25.923 23.078C26.287 22.914 26.675 22.832 27.087 22.832C27.567 22.832 28.005 22.938 28.401 23.15C28.801 23.358 29.137 23.642 29.409 24.002C29.685 24.358 29.881 24.76 29.997 25.208C30.113 25.656 30.125 26.118 30.033 26.594H26.031C26.087 26.734 26.161 26.862 26.253 26.978C26.349 27.09 26.465 27.18 26.601 27.248C26.741 27.316 26.903 27.352 27.087 27.356C27.263 27.36 27.425 27.322 27.573 27.242C27.725 27.162 27.857 27.054 27.969 26.918L29.805 27.344C29.561 27.876 29.197 28.312 28.713 28.652C28.229 28.988 27.687 29.156 27.087 29.156ZM25.965 25.274H28.215C28.159 25.102 28.075 24.95 27.963 24.818C27.851 24.686 27.719 24.582 27.567 24.506C27.419 24.43 27.259 24.392 27.087 24.392C26.919 24.392 26.759 24.43 26.607 24.506C26.459 24.582 26.329 24.686 26.217 24.818C26.109 24.95 26.025 25.102 25.965 25.274ZM37.4601 25.166V29H35.6601V25.67C35.6601 25.482 35.6141 25.312 35.5221 25.16C35.4301 25.004 35.3081 24.882 35.1561 24.794C35.0041 24.702 34.8341 24.656 34.6461 24.656C34.4581 24.656 34.2861 24.702 34.1301 24.794C33.9781 24.882 33.8561 25.004 33.7641 25.16C33.6761 25.312 33.6321 25.482 33.6321 25.67V29H31.8321L31.8261 23H33.6261L33.6321 23.378C33.8321 23.206 34.0601 23.072 34.3161 22.976C34.5721 22.88 34.8421 22.832 35.1261 22.832C35.5581 22.832 35.9501 22.938 36.3021 23.15C36.6541 23.358 36.9341 23.638 37.1421 23.99C37.3541 24.342 37.4601 24.734 37.4601 25.166ZM42.8009 27.032L44.4209 27.908C44.1449 28.284 43.7989 28.586 43.3829 28.814C42.9669 29.042 42.5129 29.156 42.0209 29.156C41.4689 29.156 40.9649 29.014 40.5089 28.73C40.0569 28.446 39.6949 28.066 39.4229 27.59C39.1549 27.11 39.0209 26.58 39.0209 26C39.0209 25.56 39.0989 25.15 39.2549 24.77C39.4109 24.386 39.6249 24.05 39.8969 23.762C40.1729 23.47 40.4929 23.242 40.8569 23.078C41.2209 22.914 41.6089 22.832 42.0209 22.832C42.5129 22.832 42.9669 22.946 43.3829 23.174C43.7989 23.402 44.1449 23.708 44.4209 24.092L42.8009 24.968C42.6929 24.86 42.5709 24.778 42.4349 24.722C42.3029 24.662 42.1649 24.632 42.0209 24.632C41.7929 24.632 41.5889 24.696 41.4089 24.824C41.2289 24.952 41.0849 25.12 40.9769 25.328C40.8729 25.536 40.8209 25.76 40.8209 26C40.8209 26.236 40.8729 26.458 40.9769 26.666C41.0849 26.87 41.2289 27.036 41.4089 27.164C41.5889 27.292 41.7929 27.356 42.0209 27.356C42.1649 27.356 42.3029 27.328 42.4349 27.272C42.5709 27.212 42.6929 27.132 42.8009 27.032ZM48.732 29.156C48.18 29.156 47.676 29.014 47.22 28.73C46.768 28.446 46.406 28.064 46.134 27.584C45.866 27.104 45.732 26.574 45.732 25.994C45.732 25.558 45.81 25.15 45.966 24.77C46.122 24.386 46.336 24.05 46.608 23.762C46.884 23.47 47.204 23.242 47.568 23.078C47.932 22.914 48.32 22.832 48.732 22.832C49.212 22.832 49.65 22.938 50.046 23.15C50.446 23.358 50.782 23.642 51.054 24.002C51.33 24.358 51.526 24.76 51.642 25.208C51.758 25.656 51.77 26.118 51.678 26.594H47.676C47.732 26.734 47.806 26.862 47.898 26.978C47.994 27.09 48.11 27.18 48.246 27.248C48.386 27.316 48.548 27.352 48.732 27.356C48.908 27.36 49.07 27.322 49.218 27.242C49.37 27.162 49.502 27.054 49.614 26.918L51.45 27.344C51.206 27.876 50.842 28.312 50.358 28.652C49.874 28.988 49.332 29.156 48.732 29.156ZM47.61 25.274H49.86C49.804 25.102 49.72 24.95 49.608 24.818C49.496 24.686 49.364 24.582 49.212 24.506C49.064 24.43 48.904 24.392 48.732 24.392C48.564 24.392 48.404 24.43 48.252 24.506C48.104 24.582 47.974 24.686 47.862 24.818C47.754 24.95 47.67 25.102 47.61 25.274ZM5.72 43L7.352 34.6H8.888L10.772 39.556L12.656 34.6H14.192L15.824 43H13.988L13.112 38.464L11.396 43H10.148L8.432 38.464L7.556 43H5.72ZM17.023 40.822V37H18.823V40.318C18.823 40.506 18.869 40.678 18.961 40.834C19.053 40.986 19.175 41.108 19.327 41.2C19.483 41.288 19.653 41.332 19.837 41.332C20.025 41.332 20.195 41.288 20.347 41.2C20.503 41.108 20.625 40.986 20.713 40.834C20.805 40.678 20.851 40.506 20.851 40.318V37H22.651L22.657 43H20.857L20.851 42.61C20.651 42.782 20.423 42.916 20.167 43.012C19.911 43.108 19.641 43.156 19.357 43.156C18.929 43.156 18.537 43.052 18.181 42.844C17.829 42.632 17.547 42.35 17.335 41.998C17.127 41.646 17.023 41.254 17.023 40.822ZM25.5886 43.108C25.2846 43.08 24.9926 43.014 24.7126 42.91C24.4326 42.806 24.1826 42.664 23.9626 42.484C23.7426 42.304 23.5686 42.084 23.4406 41.824L24.9526 41.176C24.9926 41.22 25.0486 41.276 25.1206 41.344C25.1926 41.408 25.2826 41.466 25.3906 41.518C25.5026 41.57 25.6366 41.596 25.7926 41.596C25.8966 41.596 25.9966 41.586 26.0926 41.566C26.1926 41.542 26.2726 41.502 26.3326 41.446C26.3966 41.39 26.4286 41.312 26.4286 41.212C26.4286 41.1 26.3866 41.016 26.3026 40.96C26.2226 40.9 26.1246 40.858 26.0086 40.834C25.8926 40.806 25.7846 40.784 25.6846 40.768C25.3286 40.712 24.9866 40.6 24.6586 40.432C24.3346 40.26 24.0686 40.038 23.8606 39.766C23.6526 39.49 23.5486 39.168 23.5486 38.8C23.5486 38.388 23.6546 38.032 23.8666 37.732C24.0786 37.432 24.3546 37.202 24.6946 37.042C25.0386 36.878 25.4086 36.796 25.8046 36.796C26.2726 36.796 26.7046 36.892 27.1006 37.084C27.5006 37.276 27.8286 37.552 28.0846 37.912L26.6686 38.752C26.6206 38.692 26.5606 38.632 26.4886 38.572C26.4206 38.508 26.3406 38.454 26.2486 38.41C26.1606 38.362 26.0646 38.332 25.9606 38.32C25.8206 38.308 25.6946 38.314 25.5826 38.338C25.4746 38.358 25.3886 38.402 25.3246 38.47C25.2606 38.534 25.2286 38.628 25.2286 38.752C25.2286 38.868 25.2846 38.952 25.3966 39.004C25.5086 39.056 25.6346 39.094 25.7746 39.118C25.9146 39.142 26.0286 39.168 26.1166 39.196C26.4606 39.308 26.7846 39.454 27.0886 39.634C27.3926 39.814 27.6366 40.032 27.8206 40.288C28.0086 40.544 28.0966 40.844 28.0846 41.188C28.0846 41.588 27.9646 41.94 27.7246 42.244C27.4846 42.548 27.1746 42.778 26.7946 42.934C26.4146 43.09 26.0126 43.148 25.5886 43.108ZM31.61 43.156C31.058 43.156 30.554 43.014 30.098 42.73C29.646 42.446 29.284 42.064 29.012 41.584C28.744 41.104 28.61 40.574 28.61 39.994C28.61 39.558 28.688 39.15 28.844 38.77C29 38.386 29.214 38.05 29.486 37.762C29.762 37.47 30.082 37.242 30.446 37.078C30.81 36.914 31.198 36.832 31.61 36.832C32.09 36.832 32.528 36.938 32.924 37.15C33.324 37.358 33.66 37.642 33.932 38.002C34.208 38.358 34.404 38.76 34.52 39.208C34.636 39.656 34.648 40.118 34.556 40.594H30.554C30.61 40.734 30.684 40.862 30.776 40.978C30.872 41.09 30.988 41.18 31.124 41.248C31.264 41.316 31.426 41.352 31.61 41.356C31.786 41.36 31.948 41.322 32.096 41.242C32.248 41.162 32.38 41.054 32.492 40.918L34.328 41.344C34.084 41.876 33.72 42.312 33.236 42.652C32.752 42.988 32.21 43.156 31.61 43.156ZM30.488 39.274H32.738C32.682 39.102 32.598 38.95 32.486 38.818C32.374 38.686 32.242 38.582 32.09 38.506C31.942 38.43 31.782 38.392 31.61 38.392C31.442 38.392 31.282 38.43 31.13 38.506C30.982 38.582 30.852 38.686 30.74 38.818C30.632 38.95 30.548 39.102 30.488 39.274ZM35.0933 40.822V37H36.8933V40.318C36.8933 40.506 36.9393 40.678 37.0313 40.834C37.1233 40.986 37.2453 41.108 37.3973 41.2C37.5533 41.288 37.7233 41.332 37.9073 41.332C38.0953 41.332 38.2653 41.288 38.4173 41.2C38.5733 41.108 38.6953 40.986 38.7833 40.834C38.8753 40.678 38.9213 40.506 38.9213 40.318V37H40.7213L40.7273 43H38.9273L38.9213 42.61C38.7213 42.782 38.4933 42.916 38.2373 43.012C37.9813 43.108 37.7113 43.156 37.4273 43.156C36.9993 43.156 36.6073 43.052 36.2513 42.844C35.8993 42.632 35.6173 42.35 35.4053 41.998C35.1973 41.646 35.0933 41.254 35.0933 40.822ZM41.9309 43V37H43.7309V37.378C43.9309 37.206 44.1589 37.072 44.4149 36.976C44.6709 36.88 44.9409 36.832 45.2249 36.832C45.6249 36.832 45.9929 36.924 46.3289 37.108C46.6649 37.288 46.9369 37.53 47.1449 37.834C47.3569 37.53 47.6289 37.288 47.9609 37.108C48.2969 36.924 48.6629 36.832 49.0589 36.832C49.4909 36.832 49.8829 36.938 50.2349 37.15C50.5869 37.358 50.8669 37.638 51.0749 37.99C51.2869 38.342 51.3929 38.734 51.3929 39.166V43H49.5929V39.67C49.5929 39.482 49.5469 39.312 49.4549 39.16C49.3629 39.008 49.2409 38.886 49.0889 38.794C48.9369 38.702 48.7669 38.656 48.5789 38.656C48.3909 38.656 48.2189 38.702 48.0629 38.794C47.9109 38.886 47.7889 39.008 47.6969 39.16C47.6049 39.312 47.5589 39.482 47.5589 39.67V43H45.7589V39.67C45.7589 39.482 45.7129 39.312 45.6209 39.16C45.5329 39.008 45.4109 38.886 45.2549 38.794C45.1029 38.702 44.9329 38.656 44.7449 38.656C44.5609 38.656 44.3909 38.702 44.2349 38.794C44.0829 38.886 43.9609 39.008 43.8689 39.16C43.7769 39.312 43.7309 39.482 43.7309 39.67V43H41.9309Z" fill="black"/>
<path d="M67.8433 20.5658H62.1569C61.5825 20.5658 61.1169 21.0525 61.1169 21.6529C61.1169 22.2534 61.5825 22.7401 62.1569 22.7401H67.8433C68.4177 22.7401 68.8833 22.2534 68.8833 21.6529C68.8833 21.0525 68.4176 20.5658 67.8433 20.5658Z" fill="#C7F5FF"/>
<path d="M67.3524 32.7267V22.7401H62.6478V32.7267L60.0065 36.0171H69.9938L67.3524 32.7267Z" fill="white"/>
<path d="M69.9938 36.0171H60.0065L57.1708 39.5496C56.2537 40.6922 57.0306 42.4343 58.4574 42.4343H71.543C72.9697 42.4343 73.7466 40.6922 72.8295 39.5496L69.9938 36.0171Z" fill="#FF9A56"/>
<path d="M73.2439 39.186C72.7117 38.523 68.395 33.1455 67.8936 32.5208V23.3046C68.7421 23.2767 69.4244 22.5468 69.4244 21.653C69.4244 20.7415 68.7151 20 67.8433 20H62.1569C61.2851 20 60.5758 20.7415 60.5758 21.6529C60.5758 22.5468 61.258 23.2767 62.1066 23.3045V32.5207C61.2357 33.6055 57.318 38.4862 56.7562 39.1859C55.5429 40.6976 56.5723 43 58.4574 43H71.5429C73.4305 43 74.4557 40.6956 73.2439 39.186ZM61.6581 21.6529C61.6581 21.3654 61.8819 21.1315 62.157 21.1315H67.8434C68.1185 21.1315 68.3422 21.3654 68.3422 21.6529C68.3422 21.9404 68.1184 22.1744 67.8434 22.1744C67.2984 22.1744 62.7143 22.1744 62.157 22.1744C61.8819 22.1744 61.6581 21.9405 61.6581 21.6529ZM63.0623 33.0904C63.1441 32.9884 63.189 32.8597 63.189 32.7267V31.2269H64.4377C64.7365 31.2269 64.9788 30.9737 64.9788 30.6611C64.9788 30.3486 64.7365 30.0954 64.4377 30.0954H63.189V29.1863H64.4377C64.7365 29.1863 64.9788 28.933 64.9788 28.6205C64.9788 28.308 64.7365 28.0548 64.4377 28.0548H63.189V27.1457H64.4377C64.7365 27.1457 64.9788 26.8925 64.9788 26.5799C64.9788 26.2674 64.7365 26.0142 64.4377 26.0142H63.189V23.3059H66.8112V32.7267C66.8112 32.8598 66.856 32.9886 66.9378 33.0904L68.8331 35.4514H61.1672L63.0623 33.0904ZM71.5429 41.8685H58.4574C57.4881 41.8685 56.9619 40.69 57.5854 39.9133L60.2588 36.5829H69.7414L72.4149 39.9133C73.0379 40.6895 72.5128 41.8685 71.5429 41.8685Z" fill="black"/>
<path d="M67.6306 37.5185C66.7302 37.5185 65.9977 38.2843 65.9977 39.2256C65.9977 40.167 66.7302 40.9328 67.6306 40.9328C68.531 40.9328 69.2634 40.167 69.2634 39.2256C69.2634 38.2844 68.531 37.5185 67.6306 37.5185ZM67.6306 39.8013C67.327 39.8013 67.08 39.5431 67.08 39.2257C67.08 38.9083 67.327 38.6501 67.6306 38.6501C67.9342 38.6501 68.1812 38.9083 68.1812 39.2257C68.1812 39.5431 67.9342 39.8013 67.6306 39.8013Z" fill="black"/>
</svg>
