<svg width="172" height="100" viewBox="0 0 172 100" fill="none" xmlns="http://www.w3.org/2000/svg">
<rect width="172" height="100" fill="#6FB7DE"/>
<path d="M24.216 31.312C23.08 31.312 22.012 31.088 21.012 30.64C20.012 30.184 19.132 29.556 18.372 28.756C17.62 27.956 17.028 27.032 16.596 25.984C16.172 24.928 15.96 23.8 15.96 22.6C15.96 21.392 16.172 20.264 16.596 19.216C17.028 18.16 17.62 17.236 18.372 16.444C19.132 15.644 20.012 15.02 21.012 14.572C22.012 14.116 23.08 13.888 24.216 13.888C25.576 13.888 26.828 14.204 27.972 14.836C29.116 15.46 30.064 16.296 30.816 17.344L27.6 19.072C27.184 18.592 26.684 18.208 26.1 17.92C25.516 17.632 24.888 17.488 24.216 17.488C23.576 17.488 22.972 17.62 22.404 17.884C21.844 18.148 21.348 18.516 20.916 18.988C20.492 19.452 20.16 19.992 19.92 20.608C19.68 21.224 19.56 21.888 19.56 22.6C19.56 23.304 19.68 23.964 19.92 24.58C20.16 25.196 20.492 25.74 20.916 26.212C21.348 26.676 21.844 27.044 22.404 27.316C22.972 27.58 23.576 27.712 24.216 27.712C24.888 27.712 25.516 27.568 26.1 27.28C26.684 26.984 27.184 26.592 27.6 26.104L30.816 27.856C30.064 28.896 29.116 29.732 27.972 30.364C26.828 30.996 25.576 31.312 24.216 31.312ZM39.0975 31.312C37.9935 31.312 36.9855 31.028 36.0735 30.46C35.1695 29.892 34.4455 29.132 33.9015 28.18C33.3655 27.22 33.0975 26.16 33.0975 25C33.0975 24.12 33.2535 23.3 33.5655 22.54C33.8775 21.772 34.3055 21.1 34.8495 20.524C35.4015 19.94 36.0415 19.484 36.7695 19.156C37.4975 18.828 38.2735 18.664 39.0975 18.664C40.2015 18.664 41.2055 18.948 42.1095 19.516C43.0215 20.084 43.7455 20.848 44.2815 21.808C44.8255 22.768 45.0975 23.832 45.0975 25C45.0975 25.872 44.9415 26.688 44.6295 27.448C44.3175 28.208 43.8855 28.88 43.3335 29.464C42.7895 30.04 42.1535 30.492 41.4255 30.82C40.7055 31.148 39.9295 31.312 39.0975 31.312ZM39.0975 27.712C39.5535 27.712 39.9615 27.588 40.3215 27.34C40.6895 27.092 40.9775 26.764 41.1855 26.356C41.3935 25.94 41.4975 25.488 41.4975 25C41.4975 24.496 41.3855 24.036 41.1615 23.62C40.9455 23.204 40.6535 22.876 40.2855 22.636C39.9255 22.388 39.5295 22.264 39.0975 22.264C38.6495 22.264 38.2415 22.392 37.8735 22.648C37.5135 22.896 37.2255 23.228 37.0095 23.644C36.8015 24.06 36.6975 24.512 36.6975 25C36.6975 25.512 36.8055 25.972 37.0215 26.38C37.2455 26.788 37.5375 27.112 37.8975 27.352C38.2655 27.592 38.6655 27.712 39.0975 27.712ZM48.3356 31V19H51.9356V19.756C52.3356 19.412 52.7916 19.144 53.3036 18.952C53.8156 18.76 54.3556 18.664 54.9236 18.664C55.7236 18.664 56.4596 18.848 57.1316 19.216C57.8036 19.576 58.3476 20.06 58.7636 20.668C59.1876 20.06 59.7316 19.576 60.3956 19.216C61.0676 18.848 61.7996 18.664 62.5916 18.664C63.4556 18.664 64.2396 18.876 64.9436 19.3C65.6476 19.716 66.2076 20.276 66.6236 20.98C67.0476 21.684 67.2596 22.468 67.2596 23.332V31H63.6596V24.34C63.6596 23.964 63.5676 23.624 63.3836 23.32C63.1996 23.016 62.9556 22.772 62.6516 22.588C62.3476 22.404 62.0076 22.312 61.6316 22.312C61.2556 22.312 60.9116 22.404 60.5996 22.588C60.2956 22.772 60.0516 23.016 59.8676 23.32C59.6836 23.624 59.5916 23.964 59.5916 24.34V31H55.9916V24.34C55.9916 23.964 55.8996 23.624 55.7156 23.32C55.5396 23.016 55.2956 22.772 54.9836 22.588C54.6796 22.404 54.3396 22.312 53.9636 22.312C53.5956 22.312 53.2556 22.404 52.9436 22.588C52.6396 22.772 52.3956 23.016 52.2116 23.32C52.0276 23.624 51.9356 23.964 51.9356 24.34V31H48.3356ZM71.1037 31V19H74.7037V19.756C75.1037 19.412 75.5598 19.144 76.0718 18.952C76.5838 18.76 77.1238 18.664 77.6918 18.664C78.4918 18.664 79.2278 18.848 79.8998 19.216C80.5718 19.576 81.1158 20.06 81.5317 20.668C81.9558 20.06 82.4998 19.576 83.1637 19.216C83.8358 18.848 84.5678 18.664 85.3598 18.664C86.2238 18.664 87.0078 18.876 87.7118 19.3C88.4158 19.716 88.9758 20.276 89.3918 20.98C89.8158 21.684 90.0278 22.468 90.0278 23.332V31H86.4278V24.34C86.4278 23.964 86.3358 23.624 86.1518 23.32C85.9678 23.016 85.7238 22.772 85.4198 22.588C85.1158 22.404 84.7758 22.312 84.3998 22.312C84.0238 22.312 83.6798 22.404 83.3678 22.588C83.0638 22.772 82.8198 23.016 82.6358 23.32C82.4518 23.624 82.3598 23.964 82.3598 24.34V31H78.7597V24.34C78.7597 23.964 78.6677 23.624 78.4837 23.32C78.3078 23.016 78.0638 22.772 77.7517 22.588C77.4478 22.404 77.1078 22.312 76.7318 22.312C76.3638 22.312 76.0238 22.404 75.7117 22.588C75.4077 22.772 75.1637 23.016 74.9797 23.32C74.7957 23.624 74.7037 23.964 74.7037 24.34V31H71.1037ZM93.3919 26.644V19H96.9919V25.636C96.9919 26.012 97.0839 26.356 97.2679 26.668C97.4519 26.972 97.6959 27.216 97.9999 27.4C98.3119 27.576 98.6519 27.664 99.0199 27.664C99.3959 27.664 99.7359 27.576 100.04 27.4C100.352 27.216 100.596 26.972 100.772 26.668C100.956 26.356 101.048 26.012 101.048 25.636V19H104.648L104.66 31H101.06L101.048 30.22C100.648 30.564 100.192 30.832 99.6799 31.024C99.1679 31.216 98.6279 31.312 98.0599 31.312C97.2039 31.312 96.4199 31.104 95.7079 30.688C95.0039 30.264 94.4399 29.7 94.0159 28.996C93.5999 28.292 93.3919 27.508 93.3919 26.644ZM119.775 23.332V31H116.175V24.34C116.175 23.964 116.083 23.624 115.899 23.32C115.715 23.008 115.471 22.764 115.167 22.588C114.863 22.404 114.523 22.312 114.147 22.312C113.771 22.312 113.427 22.404 113.115 22.588C112.811 22.764 112.567 23.008 112.383 23.32C112.207 23.624 112.119 23.964 112.119 24.34V31H108.519L108.507 19H112.107L112.119 19.756C112.519 19.412 112.975 19.144 113.487 18.952C113.999 18.76 114.539 18.664 115.107 18.664C115.971 18.664 116.755 18.876 117.459 19.3C118.163 19.716 118.723 20.276 119.139 20.98C119.563 21.684 119.775 22.468 119.775 23.332ZM123.611 19H127.211V31H123.611V19ZM125.435 17.752C124.915 17.752 124.479 17.58 124.127 17.236C123.775 16.892 123.599 16.464 123.599 15.952C123.599 15.448 123.775 15.024 124.127 14.68C124.479 14.328 124.911 14.152 125.423 14.152C125.927 14.152 126.351 14.328 126.695 14.68C127.047 15.024 127.223 15.448 127.223 15.952C127.223 16.464 127.051 16.892 126.707 17.236C126.371 17.58 125.947 17.752 125.435 17.752ZM138.12 22.6H136.08V31H132.48V22.6H130.92V19H132.48V15.232H136.08V19H138.12V22.6ZM149.348 19H153.188L146.612 37H142.796L144.956 31L140.636 19H144.572L146.756 26.08L149.348 19ZM22.584 60.312C21.64 60.312 20.736 60.164 19.872 59.868C19.008 59.564 18.252 59.132 17.604 58.572C16.956 58.004 16.488 57.328 16.2 56.544L19.584 55.296C19.664 55.528 19.84 55.752 20.112 55.968C20.392 56.184 20.744 56.364 21.168 56.508C21.592 56.644 22.064 56.712 22.584 56.712C23.064 56.712 23.516 56.644 23.94 56.508C24.364 56.364 24.708 56.168 24.972 55.92C25.236 55.672 25.368 55.384 25.368 55.056C25.368 54.72 25.228 54.444 24.948 54.228C24.676 54.004 24.324 53.828 23.892 53.7C23.468 53.564 23.032 53.464 22.584 53.4C21.368 53.224 20.276 52.936 19.308 52.536C18.348 52.128 17.588 51.568 17.028 50.856C16.476 50.144 16.2 49.24 16.2 48.144C16.2 47.096 16.496 46.18 17.088 45.396C17.68 44.604 18.46 43.988 19.428 43.548C20.404 43.108 21.456 42.888 22.584 42.888C23.528 42.888 24.432 43.04 25.296 43.344C26.168 43.64 26.928 44.072 27.576 44.64C28.224 45.208 28.688 45.888 28.968 46.68L25.584 47.904C25.504 47.672 25.324 47.452 25.044 47.244C24.772 47.028 24.424 46.852 24 46.716C23.576 46.58 23.104 46.512 22.584 46.512C22.12 46.504 21.676 46.572 21.252 46.716C20.828 46.86 20.48 47.056 20.208 47.304C19.936 47.552 19.8 47.832 19.8 48.144C19.8 48.576 19.928 48.9 20.184 49.116C20.44 49.324 20.776 49.472 21.192 49.56C21.616 49.648 22.08 49.728 22.584 49.8C23.736 49.968 24.796 50.268 25.764 50.7C26.732 51.132 27.508 51.708 28.092 52.428C28.676 53.148 28.968 54.024 28.968 55.056C28.968 56.104 28.672 57.024 28.08 57.816C27.496 58.6 26.72 59.212 25.752 59.652C24.784 60.092 23.728 60.312 22.584 60.312ZM39.6319 56.064L42.8719 57.816C42.3199 58.568 41.6279 59.172 40.7959 59.628C39.9639 60.084 39.0559 60.312 38.0719 60.312C36.9679 60.312 35.9599 60.028 35.0479 59.46C34.1439 58.892 33.4199 58.132 32.8759 57.18C32.3399 56.22 32.0719 55.16 32.0719 54C32.0719 53.12 32.2279 52.3 32.5399 51.54C32.8519 50.772 33.2799 50.1 33.8239 49.524C34.3759 48.94 35.0159 48.484 35.7439 48.156C36.4719 47.828 37.2479 47.664 38.0719 47.664C39.0559 47.664 39.9639 47.892 40.7959 48.348C41.6279 48.804 42.3199 49.416 42.8719 50.184L39.6319 51.936C39.4159 51.72 39.1719 51.556 38.8999 51.444C38.6359 51.324 38.3599 51.264 38.0719 51.264C37.6159 51.264 37.2079 51.392 36.8479 51.648C36.4879 51.904 36.1999 52.24 35.9839 52.656C35.7759 53.072 35.6719 53.52 35.6719 54C35.6719 54.472 35.7759 54.916 35.9839 55.332C36.1999 55.74 36.4879 56.072 36.8479 56.328C37.2079 56.584 37.6159 56.712 38.0719 56.712C38.3599 56.712 38.6359 56.656 38.8999 56.544C39.1719 56.424 39.4159 56.264 39.6319 56.064ZM46.0969 48H49.6969V60H46.0969V48ZM47.9209 46.752C47.4009 46.752 46.9649 46.58 46.6129 46.236C46.2609 45.892 46.0849 45.464 46.0849 44.952C46.0849 44.448 46.2609 44.024 46.6129 43.68C46.9649 43.328 47.3969 43.152 47.9089 43.152C48.4129 43.152 48.8369 43.328 49.1809 43.68C49.5329 44.024 49.7089 44.448 49.7089 44.952C49.7089 45.464 49.5369 45.892 49.1929 46.236C48.8569 46.58 48.4329 46.752 47.9209 46.752ZM59.1741 60.312C58.0701 60.312 57.0621 60.028 56.1501 59.46C55.2461 58.892 54.5221 58.128 53.9781 57.168C53.4421 56.208 53.1741 55.148 53.1741 53.988C53.1741 53.116 53.3301 52.3 53.6421 51.54C53.9541 50.772 54.3821 50.1 54.9261 49.524C55.4781 48.94 56.1181 48.484 56.8461 48.156C57.5741 47.828 58.3501 47.664 59.1741 47.664C60.1341 47.664 61.0101 47.876 61.8021 48.3C62.6021 48.716 63.2741 49.284 63.8181 50.004C64.3701 50.716 64.7621 51.52 64.9941 52.416C65.2261 53.312 65.2501 54.236 65.0661 55.188H57.0621C57.1741 55.468 57.3221 55.724 57.5061 55.956C57.6981 56.18 57.9301 56.36 58.2021 56.496C58.4821 56.632 58.8061 56.704 59.1741 56.712C59.5261 56.72 59.8501 56.644 60.1461 56.484C60.4501 56.324 60.7141 56.108 60.9381 55.836L64.6101 56.688C64.1221 57.752 63.3941 58.624 62.4261 59.304C61.4581 59.976 60.3741 60.312 59.1741 60.312ZM56.9301 52.548H61.4301C61.3181 52.204 61.1501 51.9 60.9261 51.636C60.7021 51.372 60.4381 51.164 60.1341 51.012C59.8381 50.86 59.5181 50.784 59.1741 50.784C58.8381 50.784 58.5181 50.86 58.2141 51.012C57.9181 51.164 57.6581 51.372 57.4341 51.636C57.2181 51.9 57.0501 52.204 56.9301 52.548ZM79.9202 52.332V60H76.3202V53.34C76.3202 52.964 76.2282 52.624 76.0442 52.32C75.8602 52.008 75.6162 51.764 75.3122 51.588C75.0082 51.404 74.6682 51.312 74.2922 51.312C73.9162 51.312 73.5722 51.404 73.2602 51.588C72.9562 51.764 72.7122 52.008 72.5282 52.32C72.3522 52.624 72.2642 52.964 72.2642 53.34V60H68.6642L68.6522 48H72.2522L72.2642 48.756C72.6642 48.412 73.1202 48.144 73.6322 47.952C74.1442 47.76 74.6842 47.664 75.2522 47.664C76.1162 47.664 76.9002 47.876 77.6042 48.3C78.3082 48.716 78.8682 49.276 79.2842 49.98C79.7082 50.684 79.9202 51.468 79.9202 52.332ZM90.6019 56.064L93.8419 57.816C93.2899 58.568 92.5979 59.172 91.7659 59.628C90.9339 60.084 90.0259 60.312 89.0419 60.312C87.9379 60.312 86.9299 60.028 86.0179 59.46C85.1139 58.892 84.3899 58.132 83.8459 57.18C83.3099 56.22 83.0419 55.16 83.0419 54C83.0419 53.12 83.1979 52.3 83.5099 51.54C83.8219 50.772 84.2499 50.1 84.7939 49.524C85.3459 48.94 85.9859 48.484 86.7139 48.156C87.4419 47.828 88.2179 47.664 89.0419 47.664C90.0259 47.664 90.9339 47.892 91.7659 48.348C92.5979 48.804 93.2899 49.416 93.8419 50.184L90.6019 51.936C90.3859 51.72 90.1419 51.556 89.8699 51.444C89.6059 51.324 89.3299 51.264 89.0419 51.264C88.5859 51.264 88.1779 51.392 87.8179 51.648C87.4579 51.904 87.1699 52.24 86.9539 52.656C86.7459 53.072 86.6419 53.52 86.6419 54C86.6419 54.472 86.7459 54.916 86.9539 55.332C87.1699 55.74 87.4579 56.072 87.8179 56.328C88.1779 56.584 88.5859 56.712 89.0419 56.712C89.3299 56.712 89.6059 56.656 89.8699 56.544C90.1419 56.424 90.3859 56.264 90.6019 56.064ZM102.464 60.312C101.36 60.312 100.352 60.028 99.4401 59.46C98.5361 58.892 97.8121 58.128 97.2681 57.168C96.7321 56.208 96.4641 55.148 96.4641 53.988C96.4641 53.116 96.6201 52.3 96.9321 51.54C97.2441 50.772 97.6721 50.1 98.2161 49.524C98.7681 48.94 99.4081 48.484 100.136 48.156C100.864 47.828 101.64 47.664 102.464 47.664C103.424 47.664 104.3 47.876 105.092 48.3C105.892 48.716 106.564 49.284 107.108 50.004C107.66 50.716 108.052 51.52 108.284 52.416C108.516 53.312 108.54 54.236 108.356 55.188H100.352C100.464 55.468 100.612 55.724 100.796 55.956C100.988 56.18 101.22 56.36 101.492 56.496C101.772 56.632 102.096 56.704 102.464 56.712C102.816 56.72 103.14 56.644 103.436 56.484C103.74 56.324 104.004 56.108 104.228 55.836L107.9 56.688C107.412 57.752 106.684 58.624 105.716 59.304C104.748 59.976 103.664 60.312 102.464 60.312ZM100.22 52.548H104.72C104.608 52.204 104.44 51.9 104.216 51.636C103.992 51.372 103.728 51.164 103.424 51.012C103.128 50.86 102.808 50.784 102.464 50.784C102.128 50.784 101.808 50.86 101.504 51.012C101.208 51.164 100.948 51.372 100.724 51.636C100.508 51.9 100.34 52.204 100.22 52.548ZM16.44 89L19.704 72.2H22.776L26.544 82.112L30.312 72.2H33.384L36.648 89H32.976L31.224 79.928L27.792 89H25.296L21.864 79.928L20.112 89H16.44ZM39.0459 84.644V77H42.6459V83.636C42.6459 84.012 42.7379 84.356 42.9219 84.668C43.1059 84.972 43.3499 85.216 43.6539 85.4C43.9659 85.576 44.3059 85.664 44.6739 85.664C45.0499 85.664 45.3899 85.576 45.6939 85.4C46.0059 85.216 46.2499 84.972 46.4259 84.668C46.6099 84.356 46.7019 84.012 46.7019 83.636V77H50.3019L50.3139 89H46.7139L46.7019 88.22C46.3019 88.564 45.8459 88.832 45.3339 89.024C44.8219 89.216 44.2819 89.312 43.7139 89.312C42.8579 89.312 42.0739 89.104 41.3619 88.688C40.6579 88.264 40.0939 87.7 39.6699 86.996C39.2539 86.292 39.0459 85.508 39.0459 84.644ZM56.1773 89.216C55.5693 89.16 54.9853 89.028 54.4253 88.82C53.8653 88.612 53.3653 88.328 52.9253 87.968C52.4853 87.608 52.1373 87.168 51.8813 86.648L54.9053 85.352C54.9853 85.44 55.0973 85.552 55.2413 85.688C55.3853 85.816 55.5653 85.932 55.7813 86.036C56.0053 86.14 56.2733 86.192 56.5853 86.192C56.7933 86.192 56.9933 86.172 57.1853 86.132C57.3853 86.084 57.5453 86.004 57.6653 85.892C57.7933 85.78 57.8573 85.624 57.8573 85.424C57.8573 85.2 57.7733 85.032 57.6053 84.92C57.4453 84.8 57.2493 84.716 57.0173 84.668C56.7853 84.612 56.5693 84.568 56.3693 84.536C55.6573 84.424 54.9733 84.2 54.3173 83.864C53.6693 83.52 53.1373 83.076 52.7213 82.532C52.3053 81.98 52.0973 81.336 52.0973 80.6C52.0973 79.776 52.3093 79.064 52.7333 78.464C53.1573 77.864 53.7093 77.404 54.3893 77.084C55.0773 76.756 55.8173 76.592 56.6093 76.592C57.5453 76.592 58.4093 76.784 59.2013 77.168C60.0013 77.552 60.6573 78.104 61.1693 78.824L58.3372 80.504C58.2413 80.384 58.1213 80.264 57.9773 80.144C57.8413 80.016 57.6813 79.908 57.4973 79.82C57.3213 79.724 57.1293 79.664 56.9213 79.64C56.6413 79.616 56.3893 79.628 56.1653 79.676C55.9493 79.716 55.7773 79.804 55.6493 79.94C55.5213 80.068 55.4573 80.256 55.4573 80.504C55.4573 80.736 55.5693 80.904 55.7933 81.008C56.0173 81.112 56.2693 81.188 56.5493 81.236C56.8293 81.284 57.0573 81.336 57.2333 81.392C57.9213 81.616 58.5693 81.908 59.1773 82.268C59.7853 82.628 60.2733 83.064 60.6413 83.576C61.0173 84.088 61.1933 84.688 61.1693 85.376C61.1693 86.176 60.9293 86.88 60.4493 87.488C59.9693 88.096 59.3493 88.556 58.5893 88.868C57.8293 89.18 57.0253 89.296 56.1773 89.216ZM68.22 89.312C67.116 89.312 66.108 89.028 65.196 88.46C64.292 87.892 63.568 87.128 63.024 86.168C62.488 85.208 62.22 84.148 62.22 82.988C62.22 82.116 62.376 81.3 62.688 80.54C63 79.772 63.428 79.1 63.972 78.524C64.524 77.94 65.164 77.484 65.892 77.156C66.62 76.828 67.396 76.664 68.22 76.664C69.18 76.664 70.056 76.876 70.848 77.3C71.648 77.716 72.32 78.284 72.864 79.004C73.416 79.716 73.808 80.52 74.04 81.416C74.272 82.312 74.296 83.236 74.112 84.188H66.108C66.22 84.468 66.368 84.724 66.552 84.956C66.744 85.18 66.976 85.36 67.248 85.496C67.528 85.632 67.852 85.704 68.22 85.712C68.572 85.72 68.896 85.644 69.192 85.484C69.496 85.324 69.76 85.108 69.984 84.836L73.656 85.688C73.168 86.752 72.44 87.624 71.472 88.304C70.504 88.976 69.42 89.312 68.22 89.312ZM65.976 81.548H70.476C70.364 81.204 70.196 80.9 69.972 80.636C69.748 80.372 69.484 80.164 69.18 80.012C68.884 79.86 68.564 79.784 68.22 79.784C67.884 79.784 67.564 79.86 67.26 80.012C66.964 80.164 66.704 80.372 66.48 80.636C66.264 80.9 66.096 81.204 65.976 81.548ZM75.1866 84.644V77H78.7866V83.636C78.7866 84.012 78.8786 84.356 79.0626 84.668C79.2466 84.972 79.4906 85.216 79.7946 85.4C80.1066 85.576 80.4466 85.664 80.8146 85.664C81.1906 85.664 81.5306 85.576 81.8346 85.4C82.1466 85.216 82.3906 84.972 82.5666 84.668C82.7506 84.356 82.8426 84.012 82.8426 83.636V77H86.4426L86.4546 89H82.8546L82.8426 88.22C82.4426 88.564 81.9866 88.832 81.4746 89.024C80.9626 89.216 80.4226 89.312 79.8546 89.312C78.9986 89.312 78.2146 89.104 77.5026 88.688C76.7986 88.264 76.2346 87.7 75.8106 86.996C75.3946 86.292 75.1866 85.508 75.1866 84.644ZM88.8619 89V77H92.4619V77.756C92.8619 77.412 93.3179 77.144 93.8299 76.952C94.3419 76.76 94.8819 76.664 95.4499 76.664C96.2499 76.664 96.9859 76.848 97.6579 77.216C98.3299 77.576 98.8739 78.06 99.2899 78.668C99.7139 78.06 100.258 77.576 100.922 77.216C101.594 76.848 102.326 76.664 103.118 76.664C103.982 76.664 104.766 76.876 105.47 77.3C106.174 77.716 106.734 78.276 107.15 78.98C107.574 79.684 107.786 80.468 107.786 81.332V89H104.186V82.34C104.186 81.964 104.094 81.624 103.91 81.32C103.726 81.016 103.482 80.772 103.178 80.588C102.874 80.404 102.534 80.312 102.158 80.312C101.782 80.312 101.438 80.404 101.126 80.588C100.822 80.772 100.578 81.016 100.394 81.32C100.21 81.624 100.118 81.964 100.118 82.34V89H96.5179V82.34C96.5179 81.964 96.4259 81.624 96.2419 81.32C96.0659 81.016 95.8219 80.772 95.5099 80.588C95.2059 80.404 94.8659 80.312 94.4899 80.312C94.1219 80.312 93.7819 80.404 93.4699 80.588C93.1659 80.772 92.9219 81.016 92.7379 81.32C92.5539 81.624 92.4619 81.964 92.4619 82.34V89H88.8619Z" fill="black"/>
<path d="M140.945 44.1315H129.055C127.854 44.1315 126.881 45.105 126.881 46.3058C126.881 47.5067 127.854 48.4803 129.055 48.4803H140.945C142.146 48.4803 143.12 47.5067 143.12 46.3058C143.12 45.105 142.146 44.1315 140.945 44.1315Z" fill="#C7F5FF"/>
<path d="M139.919 68.4535V48.4803H130.082V68.4535L124.559 75.0342H145.441L139.919 68.4535Z" fill="white"/>
<path d="M145.441 75.0342H124.559L118.63 82.0993C116.712 84.3844 118.337 87.8685 121.32 87.8685H148.681C151.664 87.8685 153.288 84.3844 151.371 82.0993L145.441 75.0342Z" fill="#FF9A56"/>
<path d="M152.237 81.3719C151.125 80.0459 142.099 69.2911 141.05 68.0415V49.6093C142.824 49.5535 144.251 48.0936 144.251 46.306C144.251 44.4831 142.768 43 140.945 43H129.055C127.232 43 125.749 44.4831 125.749 46.3058C125.749 48.0936 127.176 49.5534 128.95 49.6091V68.0413C127.129 70.2111 118.938 79.9723 117.763 81.3717C115.226 84.3951 117.378 89 121.32 89H148.681C152.627 89 154.771 84.3913 152.237 81.3719ZM128.012 46.3058C128.012 45.7307 128.48 45.263 129.055 45.263H140.945C141.52 45.263 141.988 45.7308 141.988 46.3058C141.988 46.8808 141.52 47.3488 140.945 47.3488C139.806 47.3488 130.221 47.3488 129.055 47.3488C128.48 47.3488 128.012 46.881 128.012 46.3058ZM130.948 69.1807C131.119 68.9769 131.213 68.7194 131.213 68.4534V65.4537H133.824C134.449 65.4537 134.956 64.9473 134.956 64.3223C134.956 63.6972 134.449 63.1908 133.824 63.1908H131.213V61.3725H133.824C134.449 61.3725 134.956 60.8661 134.956 60.241C134.956 59.616 134.449 59.1095 133.824 59.1095H131.213V57.2914H133.824C134.449 57.2914 134.956 56.7849 134.956 56.1599C134.956 55.5348 134.449 55.0284 133.824 55.0284H131.213V49.6119H138.787V68.4535C138.787 68.7196 138.881 68.9772 139.052 69.1808L143.015 73.9027H126.986L130.948 69.1807ZM148.681 86.7369H121.32C119.293 86.7369 118.193 84.3801 119.497 82.8266L125.087 76.1657H144.914L150.504 82.8266C151.807 84.3791 150.709 86.7369 148.681 86.7369Z" fill="black"/>
<path d="M140.5 78.0371C138.618 78.0371 137.086 79.5686 137.086 81.4512C137.086 83.3339 138.618 84.8656 140.5 84.8656C142.383 84.8656 143.914 83.3339 143.914 81.4512C143.914 79.5687 142.383 78.0371 140.5 78.0371ZM140.5 82.6026C139.865 82.6026 139.349 82.0862 139.349 81.4513C139.349 80.8166 139.865 80.3002 140.5 80.3002C141.135 80.3002 141.651 80.8166 141.651 81.4513C141.651 82.0862 141.135 82.6026 140.5 82.6026Z" fill="black"/>
</svg>
