<svg width="71" height="71" viewBox="0 0 71 71" fill="none" xmlns="http://www.w3.org/2000/svg">
<path d="M42.6 64.3438C43.2656 64.3438 43.7094 64.1219 44.1531 63.6781L62.5687 45.2625C63.9 43.9312 64.3437 42.1563 63.4562 40.3813C62.5687 38.6063 61.2375 37.7188 59.4625 37.7188H51.475C50.3656 23.9625 38.8281 13.3125 24.85 13.3125H15.975C14.8656 13.3125 13.9781 14.2 13.7562 15.3094C13.5344 16.4188 14.4219 17.5281 15.5312 17.75H15.975C25.7375 19.9688 32.6156 27.9563 33.725 37.7188H25.9594C24.1844 37.7188 22.6312 38.8281 21.9656 40.3813C21.3 41.9344 21.7437 43.9312 22.8531 45.2625L41.2687 63.6781C41.4906 64.1219 42.1562 64.3438 42.6 64.3438Z" fill="black"/>
</svg>
