<svg width="72" height="72" viewBox="0 0 72 72" fill="none" xmlns="http://www.w3.org/2000/svg">
<path d="M42.2998 7.20001C41.6248 7.20001 41.1748 7.42501 40.4998 7.65001C38.6998 8.32501 37.7998 9.90001 37.7998 11.7V19.8C23.8498 20.925 13.0498 32.625 13.0498 46.8V55.8C13.0498 56.925 13.9498 57.825 15.0748 58.05C16.1998 58.275 17.3248 57.375 17.5498 56.25V55.8C19.7998 45.9 27.8998 38.925 37.7998 37.8V45.675C37.7998 47.475 38.9248 49.05 40.4998 49.725C42.2998 50.4 44.0998 49.95 45.4498 48.825L64.1248 30.15C65.0248 29.25 65.0248 27.9 64.1248 27L45.4498 8.32501C44.5498 7.65001 43.4248 7.20001 42.2998 7.20001Z" fill="black"/>
</svg>
