<svg width="113" height="112" viewBox="0 0 113 112" fill="none" xmlns="http://www.w3.org/2000/svg">
<path d="M105.055 1.75H7.94531C4.41406 1.75 1.76562 4.55 1.76562 7.875V104.125C1.76562 107.625 4.59063 110.25 7.94531 110.25H60.2078V68.075H46.0828V51.8H60.2078V39.725C60.2078 25.725 68.6828 18.025 81.3953 18.025C85.6328 18.025 89.8703 18.2 94.1078 18.725V33.25H85.6328C78.9234 33.25 77.5109 36.4 77.5109 41.125V51.45H93.5781L91.2828 67.9H77.1578V109.55H105.055C108.586 109.55 111.234 106.925 111.234 103.425V7.875C111.058 4.375 108.233 1.75 105.055 1.75Z" fill="white"/>
</svg>
