<svg width="111" height="111" viewBox="0 0 111 111" fill="none" xmlns="http://www.w3.org/2000/svg">
<path d="M55.6734 75.6187C66.7847 75.6187 75.7922 66.6113 75.7922 55.5C75.7922 44.3887 66.7847 35.3812 55.6734 35.3812C44.5622 35.3812 35.5547 44.3887 35.5547 55.5C35.5547 66.6113 44.5622 75.6187 55.6734 75.6187Z" fill="white"/>
<path d="M77.5266 1.73438H33.4734C15.9562 1.73438 1.73438 15.9562 1.73438 33.4734V77.1797C1.73438 95.0437 15.9562 109.266 33.4734 109.266H77.1797C95.0437 109.266 109.266 95.0438 109.266 77.5266V33.4734C109.266 15.9562 95.0438 1.73438 77.5266 1.73438ZM55.6734 81.8625C40.9312 81.8625 29.3109 69.8953 29.3109 55.5C29.3109 41.1047 41.1047 29.1375 55.6734 29.1375C70.0687 29.1375 81.8625 41.1047 81.8625 55.5C81.8625 69.8953 70.2422 81.8625 55.6734 81.8625ZM92.0953 31.5656C90.3609 33.4734 87.7594 34.5141 84.8109 34.5141C82.2094 34.5141 79.6078 33.4734 77.5266 31.5656C75.6188 29.6578 74.5781 27.2297 74.5781 24.2812C74.5781 21.3328 75.6188 19.0781 77.5266 16.9969C79.4344 14.9156 81.8625 13.875 84.8109 13.875C87.4125 13.875 90.1875 14.9156 92.0953 16.8234C93.8297 19.0781 95.0437 21.6797 95.0437 24.4547C94.8703 27.2297 93.8297 29.6578 92.0953 31.5656Z" fill="white"/>
<path d="M84.9848 20.1188C82.7301 20.1188 80.8223 22.0266 80.8223 24.2813C80.8223 26.536 82.7301 28.4438 84.9848 28.4438C87.2395 28.4438 89.1473 26.536 89.1473 24.2813C89.1473 22.0266 87.4129 20.1188 84.9848 20.1188Z" fill="white"/>
</svg>
