<svg width="24" height="24" viewBox="0 0 24 24" fill="none" xmlns="http://www.w3.org/2000/svg">
<g clip-path="url(#clip0_8_223)">
<path d="M12.0375 16.35C14.4399 16.35 16.3875 14.4024 16.3875 12C16.3875 9.59756 14.4399 7.64999 12.0375 7.64999C9.63506 7.64999 7.6875 9.59756 7.6875 12C7.6875 14.4024 9.63506 16.35 12.0375 16.35Z" fill="black"/>
<path d="M16.7625 0.375H7.2375C3.45 0.375 0.375 3.45 0.375 7.2375V16.6875C0.375 20.55 3.45 23.625 7.2375 23.625H16.6875C20.55 23.625 23.625 20.55 23.625 16.7625V7.2375C23.625 3.45 20.55 0.375 16.7625 0.375ZM12.0375 17.7C8.85 17.7 6.3375 15.1125 6.3375 12C6.3375 8.8875 8.8875 6.3 12.0375 6.3C15.15 6.3 17.7 8.8875 17.7 12C17.7 15.1125 15.1875 17.7 12.0375 17.7ZM19.9125 6.825C19.5375 7.2375 18.975 7.4625 18.3375 7.4625C17.775 7.4625 17.2125 7.2375 16.7625 6.825C16.35 6.4125 16.125 5.8875 16.125 5.25C16.125 4.6125 16.35 4.125 16.7625 3.675C17.175 3.225 17.7 3 18.3375 3C18.9 3 19.5 3.225 19.9125 3.6375C20.2875 4.125 20.55 4.6875 20.55 5.2875C20.5125 5.8875 20.2875 6.4125 19.9125 6.825Z" fill="black"/>
<path d="M18.375 4.35001C17.8875 4.35001 17.475 4.76251 17.475 5.25001C17.475 5.73751 17.8875 6.15001 18.375 6.15001C18.8625 6.15001 19.275 5.73751 19.275 5.25001C19.275 4.76251 18.9 4.35001 18.375 4.35001Z" fill="black"/>
</g>
<defs>
<clipPath id="clip0_8_223">
<rect width="24" height="24" fill="white"/>
</clipPath>
</defs>
</svg>
