<svg width="39" height="39" viewBox="0 0 39 39" fill="none" xmlns="http://www.w3.org/2000/svg">
<path d="M32.5 15.5C32.5 22.9558 25.5 34 19.5 36C13 34.5 6 22.9558 6 15.5C6 8.04416 12.5964 2 19.5 2C26.4036 2 32.5 8.04416 32.5 15.5Z" fill="#FF9A56"/>
<circle cx="19.5" cy="16.5" r="4.5" fill="#C9E7D3"/>
<path d="M19.5 1.09686C11.0906 1.09686 4.26562 7.67811 4.26562 15.7828C4.26562 21.9375 12.4312 31.6875 17.2453 36.9281C17.8547 37.5984 18.6469 37.9031 19.5 37.9031C20.3531 37.9031 21.1453 37.5375 21.7547 36.9281C26.5688 31.6875 34.7344 21.9375 34.7344 15.7828C34.7344 7.67811 27.9094 1.09686 19.5 1.09686ZM19.7438 35.1C19.6219 35.2219 19.4391 35.2219 19.2563 35.1C13.3453 28.6406 7.00781 20.2312 7.00781 15.7828C7.00781 9.20155 12.6141 3.83905 19.5 3.83905C26.3859 3.83905 31.9922 9.20155 31.9922 15.7828C31.9922 20.2312 25.6547 28.6406 19.7438 35.1Z" fill="black"/>
<path d="M19.5001 9.56717C15.8438 9.56717 12.8579 12.5531 12.8579 16.2094C12.8579 19.8656 15.8438 22.9125 19.5001 22.9125C23.1563 22.9125 26.1423 19.9265 26.1423 16.2703C26.1423 12.614 23.1563 9.56717 19.5001 9.56717ZM19.5001 20.1703C17.3063 20.1703 15.6001 18.4031 15.6001 16.2703C15.6001 14.1375 17.3673 12.3703 19.5001 12.3703C21.6329 12.3703 23.4001 14.1375 23.4001 16.2703C23.4001 18.4031 21.6938 20.1703 19.5001 20.1703Z" fill="black"/>
</svg>
