<svg width="43" height="43" viewBox="0 0 43 43" fill="none" xmlns="http://www.w3.org/2000/svg">
<path d="M40.3125 20.0219H2.6875C1.88125 20.0219 1.14219 20.6938 1.14219 21.5672C1.14219 22.3734 1.81406 23.1125 2.6875 23.1125H40.3125C41.1187 23.1125 41.8578 22.4406 41.8578 21.5672C41.8578 20.6938 41.1187 20.0219 40.3125 20.0219Z" fill="black"/>
<path d="M40.3125 31.4438H2.6875C1.88125 31.4438 1.14219 32.1156 1.14219 32.9891C1.14219 33.8625 1.81406 34.5344 2.6875 34.5344H40.3125C41.1187 34.5344 41.8578 33.8625 41.8578 32.9891C41.8578 32.1156 41.1187 31.4438 40.3125 31.4438Z" fill="black"/>
<path d="M2.6875 11.5563H40.3125C41.1187 11.5563 41.8578 10.8844 41.8578 10.0109C41.8578 9.13751 41.1859 8.46564 40.3125 8.46564H2.6875C1.88125 8.46564 1.14219 9.13751 1.14219 10.0109C1.14219 10.8844 1.88125 11.5563 2.6875 11.5563Z" fill="black"/>
</svg>
