<svg width="38" height="38" viewBox="0 0 38 38" fill="none" xmlns="http://www.w3.org/2000/svg">
<path d="M30.8156 7.06563C30.2219 3.44375 27.3719 1.06875 23.5719 1.06875H11.5187C10.925 1.06875 10.3906 1.48438 10.2125 2.07813L3.325 30.1625C3.20625 30.5781 3.325 30.9938 3.5625 31.2906C3.8 31.5875 4.21562 31.825 4.63125 31.825H7.95625L7.125 35.3281C7.00625 35.7437 7.125 36.1594 7.3625 36.4563C7.6 36.7531 8.01562 36.9906 8.43125 36.9906H16.9812C17.575 36.9906 18.1687 36.575 18.2875 35.9812L20.8406 24.9375H23.5125C25.9469 24.9375 28.3812 23.9875 30.4 22.2656C32.4187 20.6031 33.8437 18.2875 34.4375 15.8531C35.3281 12.0531 33.8438 8.55 30.8156 7.06563ZM12.5875 3.74063H23.6312C26.2437 3.74063 28.0844 5.4625 28.2625 8.01563C28.3219 8.84688 28.2625 9.5 28.0844 10.0938C27.6687 11.875 26.5406 13.7156 24.9375 15.0219C23.3937 16.3281 21.5531 17.0406 19.7719 17.0406H16.0906C15.4969 17.0406 14.9625 17.4563 14.7844 18.05L12.1125 29.0938H6.35312L12.5875 3.74063ZM31.8844 15.2594C31.4688 17.1 30.3406 18.8813 28.7375 20.1875C27.1938 21.4938 25.3531 22.2063 23.5719 22.2063H19.8312C19.2375 22.2063 18.6437 22.6219 18.525 23.2156L15.9719 34.2594H10.0937L10.6875 31.7656H13.1219C13.7156 31.7656 14.25 31.35 14.4281 30.7563L17.1 19.7125H19.7125C22.1469 19.7125 24.5812 18.7625 26.6594 17.0406C28.6781 15.3188 30.1031 13.0625 30.6969 10.6875C30.7562 10.5094 30.7563 10.3906 30.8156 10.2125C31.8844 11.4594 32.3594 13.2406 31.8844 15.2594Z" fill="black"/>
</svg>
