<svg width="110" height="110" viewBox="0 0 110 110" fill="none" xmlns="http://www.w3.org/2000/svg">
<g clip-path="url(#clip0_80_2210)">
<path d="M57.4289 0.0916666C63.4331 0 69.3914 0.0458334 75.3498 0C75.7164 7.0125 78.2373 14.1625 83.3707 19.1125C88.5039 24.2 95.7457 26.5375 102.804 27.3166V45.7875C96.2039 45.5584 89.5582 44.1834 83.5539 41.3416C80.9414 40.15 78.5123 38.6375 76.1289 37.0791C76.0832 50.4625 76.1748 63.8459 76.0373 77.1834C75.6707 83.6 73.5623 89.9709 69.8498 95.2416C63.8456 104.042 53.4414 109.771 42.7623 109.954C36.2081 110.321 29.6539 108.533 24.0623 105.233C14.8039 99.7791 8.29561 89.7875 7.33311 79.0625C7.24143 76.7709 7.19561 74.4791 7.28727 72.2334C8.11227 63.525 12.4206 55.1834 19.1123 49.5C26.7206 42.9 37.3539 39.7375 47.2998 41.6166C47.3914 48.4 47.1164 55.1834 47.1164 61.9666C42.5789 60.5 37.2623 60.9125 33.2748 63.6625C30.3873 65.5416 28.1873 68.4291 27.0414 71.6834C26.0789 74.0209 26.3539 76.5875 26.3998 79.0625C27.4998 86.5791 34.7414 92.9041 42.4414 92.2166C47.5748 92.1709 52.4789 89.1916 55.1373 84.8375C56.0082 83.325 56.9706 81.7666 57.0164 79.9791C57.4748 71.775 57.2914 63.6166 57.3373 55.4125C57.3831 36.9416 57.2914 18.5166 57.4289 0.0916666Z" fill="white"/>
</g>
<defs>
<clipPath id="clip0_80_2210">
<rect width="110" height="110" fill="white"/>
</clipPath>
</defs>
</svg>
