<svg width="24" height="24" viewBox="0 0 24 24" fill="none" xmlns="http://www.w3.org/2000/svg">
<path d="M23.1375 6.4125C22.875 5.4 22.0875 4.6125 21.075 4.35C19.275 3.8625 12 3.8625 12 3.8625C12 3.8625 4.725 3.8625 2.925 4.35C1.9125 4.6125 1.125 5.4 0.8625 6.4125C0.375 8.25 0.375 12 0.375 12C0.375 12 0.375 15.7875 0.8625 17.5875C1.125 18.6 1.9125 19.3875 2.925 19.65C4.725 20.1375 12 20.1375 12 20.1375C12 20.1375 19.275 20.1375 21.075 19.65C22.0875 19.3875 22.875 18.6 23.1375 17.5875C23.625 15.7875 23.625 12 23.625 12C23.625 12 23.625 8.25 23.1375 6.4125ZM9.675 15.4875V8.5125L15.7125 12L9.675 15.4875Z" fill="black"/>
</svg>
