<svg width="111" height="111" viewBox="0 0 111 111" fill="none" xmlns="http://www.w3.org/2000/svg">
<path d="M107.011 29.6578C105.797 24.975 102.155 21.3328 97.4719 20.1187C89.1469 17.864 55.5 17.864 55.5 17.864C55.5 17.864 21.8531 17.864 13.5281 20.1187C8.84531 21.3328 5.20312 24.975 3.98906 29.6578C1.73438 38.1562 1.73438 55.5 1.73438 55.5C1.73438 55.5 1.73438 73.0171 3.98906 81.3421C5.20312 86.025 8.84531 89.6671 13.5281 90.8812C21.8531 93.1359 55.5 93.1359 55.5 93.1359C55.5 93.1359 89.1469 93.1359 97.4719 90.8812C102.155 89.6671 105.797 86.025 107.011 81.3421C109.266 73.0171 109.266 55.5 109.266 55.5C109.266 55.5 109.266 38.1562 107.011 29.6578ZM44.7469 71.6296V39.3703L72.6703 55.5L44.7469 71.6296Z" fill="white"/>
</svg>
