<svg width="414" height="269" viewBox="0 0 414 269" fill="none" xmlns="http://www.w3.org/2000/svg">
<path d="M120.868 44C87.4084 63.5063 15.9376 54.6933 4.60458 81C-6.72849 107.128 4.82242 165.635 18.0443 191.226C31.2662 216.817 55.8212 239.724 88.2013 253.861C120.581 268.178 160.787 273.725 191.008 264.42C221.23 255.114 255.679 232.922 292.377 219.5C329.075 206.257 368.02 201.964 393.654 185.142C419.288 168.32 417.13 137.181 406.606 105.327C396.083 73.4724 377.464 40.9022 341.846 21.7538C306.228 2.60539 253.61 -3.12122 206.389 1.53166C159.168 6.3635 154.327 24.3147 120.868 44Z" fill="#A246FA"/>
</svg>
