<svg width="211" height="160" viewBox="0 0 211 160" fill="none" xmlns="http://www.w3.org/2000/svg">
<path d="M61.6018 26.171C44.5487 37.7733 8.1228 32.5313 2.34678 48.1784C-3.42925 63.7191 2.4578 98.5192 9.1965 113.74C15.9352 128.962 28.4499 142.587 44.9528 150.995C61.4558 159.511 81.9469 162.811 97.3496 157.276C112.752 151.741 130.31 138.541 149.013 130.558C167.717 122.681 187.566 120.127 200.63 110.121C213.695 100.116 212.595 81.5947 207.232 62.6479C201.868 43.7011 192.379 24.3285 174.226 12.9391C156.073 1.54968 129.255 -1.85649 105.189 0.911025C81.1218 3.78498 78.6548 14.4623 61.6018 26.171Z" fill="#A246FA"/>
</svg>
