<svg width="211" height="149" viewBox="0 0 211 149" fill="none" xmlns="http://www.w3.org/2000/svg">
<path d="M61.6018 24.3717C44.5487 35.1764 8.1228 30.2948 2.34678 44.8662C-3.42925 59.3384 2.4578 91.746 9.1965 105.921C15.9352 120.096 28.4499 132.784 44.9528 140.615C61.4558 148.545 81.9469 151.617 97.3496 146.463C112.752 141.308 130.31 129.016 149.013 121.582C167.717 114.247 187.566 111.868 200.63 102.551C213.695 93.2328 212.595 75.9851 207.232 58.3409C201.868 40.6966 192.379 22.6559 174.226 12.0495C156.073 1.44314 129.255 -1.72886 105.189 0.848392C81.1218 3.52477 78.6548 13.468 61.6018 24.3717Z" fill="#A246FA"/>
</svg>
