<svg width="192" height="192" viewBox="0 0 192 192" fill="none" xmlns="http://www.w3.org/2000/svg">
<g clip-path="url(#clip0_53_666)">
<path d="M31.3486 100.017L49.497 81.8687C39.0947 74.059 24.456 74.1539 13.2002 81.8687L31.3486 100.017Z" fill="#FF9A56"/>
<path d="M110.14 142.574L91.9912 160.723L110.108 178.839C117.791 167.995 117.823 153.356 110.14 142.574Z" fill="#FF9A56"/>
<path d="M181 41.5C158 81 129 130 81.5 154.5C49 130.5 64 145.5 35 106C61 70.5 124 13 170.5 7C204.5 2.6129 181 -4.61578 181 41.5Z" fill="white"/>
<path d="M185.769 0.0743436C142.389 7.78915 102.994 28.3404 71.8509 59.4838L57.0855 74.2492C41.0871 61.6333 17.3425 62.2657 1.56519 77.7584C-0.52173 79.8453 -0.52173 83.1965 1.56519 85.3152L106.662 190.443C108.939 192.435 112.069 192.53 114.219 190.443C129.364 175.298 130.502 151.427 117.728 134.954L132.557 120.126C163.7 88.9824 184.22 49.6185 191.935 6.36591C192.44 3.23578 190.006 -0.431858 185.769 0.0743436ZM91.9914 160.691L110.14 142.543C117.76 153.356 117.76 167.964 110.108 178.777L91.9914 160.691ZM84.4663 153.135L38.9053 107.574L79.3755 67.0719C107.105 39.2798 141.757 20.4359 179.92 12.1205C171.604 50.2514 152.76 84.8721 125 112.601L84.4663 153.135ZM49.4973 81.8687L31.3489 100.017L13.2005 81.8687C24.4245 74.1539 39.095 74.0595 49.4973 81.8687Z" fill="black"/>
<path d="M86.932 74.5652L80.324 81.1732L93.6036 94.4528C95.6905 96.5397 95.6905 99.8909 93.6036 102.01C91.6116 104.002 87.5331 103.432 86.0468 102.01L72.7672 88.73L66.2854 95.2118L70.7121 99.6385C72.799 101.725 72.799 105.077 70.7121 107.195C68.8149 109.093 64.8626 108.903 63.1552 107.195L58.7285 102.769L53.9541 107.574L84.4651 138.085L117.474 105.077C139.511 83.039 155.636 56.449 164.932 27.1079C135.56 36.403 108.97 52.5276 86.932 74.5652Z" fill="#6FB7DE"/>
<path d="M133.758 58.2503C126.833 51.3259 115.609 51.3259 108.717 58.2503C101.792 65.1748 101.792 76.3988 108.717 83.2914C115.641 90.2159 126.865 90.2159 133.758 83.2914C140.682 76.3988 140.682 65.1748 133.758 58.2503ZM126.233 75.7982C123.482 78.5488 118.961 78.5488 116.21 75.7982C113.459 73.0476 113.459 68.5578 116.21 65.7754C118.961 62.993 123.482 63.0248 126.233 65.7754C128.983 68.526 129.015 73.0158 126.233 75.7982Z" fill="black"/>
<path d="M121.206 77.8846C125.134 77.8846 128.319 74.6997 128.319 70.7709C128.319 66.8421 125.134 63.6572 121.206 63.6572C117.277 63.6572 114.092 66.8421 114.092 70.7709C114.092 74.6997 117.277 77.8846 121.206 77.8846Z" fill="#D95B72"/>
<path d="M20.0928 171.979C29.4201 168.279 37.8617 164.422 39.6639 162.652C42.5094 159.806 42.5094 155.253 39.6639 152.408C36.502 149.625 32.5184 149.53 29.4514 152.408C27.6491 154.209 23.7917 162.62 20.0928 171.979Z" fill="#FF9A56"/>
<path d="M47.1894 144.819C39.6013 137.484 28.6302 138.211 21.8637 144.819C16.5205 150.162 8.29994 172.548 5.92838 179.282C4.44254 182.76 7.63577 187.63 12.7261 186.08C19.4608 183.709 41.8144 175.457 47.1894 170.145C54.177 163.157 54.177 151.807 47.1894 144.819ZM39.6644 152.376C42.5099 155.221 42.5099 159.774 39.6644 162.62C37.8621 164.422 29.4205 168.248 20.0932 171.947C23.7926 162.62 27.65 154.178 29.4205 152.376C32.5189 149.53 36.4394 149.562 39.6644 152.376Z" fill="black"/>
</g>
<defs>
<clipPath id="clip0_53_666">
<rect width="192" height="192" fill="white"/>
</clipPath>
</defs>
</svg>
