<svg width="390" height="416" viewBox="0 0 390 416" fill="none" xmlns="http://www.w3.org/2000/svg">
<path d="M38.3318 50.1764C-15.7564 77.2452 -104.422 100.416 -99.8621 146.047C-95.3018 191.677 -41.4951 238.081 -17.3612 291.058C6.32113 344.036 8.93713 371.858 37.9371 398.154C66.929 424.062 130.46 416.715 186.724 407.434C242.544 398.54 281.123 377.678 349.009 362.597C416.896 347.516 504.567 328.181 510.12 291.058C515.221 253.935 548.12 171.943 502.887 125.152C457.202 78.3621 368.937 93.2373 337.526 59.5946C306.559 25.5652 224.802 11.8626 169.04 1.80844C112.834 -7.85899 92.8717 23.1076 38.3318 50.1764Z" fill="#D9B7E9"/>
</svg>
