<svg width="950" height="573" viewBox="0 0 950 573" fill="none" xmlns="http://www.w3.org/2000/svg">
<path d="M210.371 69.7952C128.35 107.005 -6.04334 138.858 0.733151 201.583C7.50964 264.309 88.8906 328.098 125.299 400.923C161.024 473.749 164.906 511.995 208.764 548.142C252.611 583.758 348.879 573.658 434.145 560.9C518.737 548.674 577.243 519.996 680.133 499.265C783.023 478.533 915.898 451.955 924.418 400.923C932.253 349.892 982.332 237.182 913.941 172.861C844.865 108.541 711.103 128.989 663.614 82.742C616.798 35.9635 492.979 17.1271 408.53 3.30617C323.408 -9.98318 293.076 32.5851 210.371 69.7952Z" fill="#D9B7E9"/>
</svg>
