<svg width="449" height="239" viewBox="0 0 449 239" fill="none" xmlns="http://www.w3.org/2000/svg">
<path d="M126.25 2.15869C100.943 11.6136 91.9047 38.8527 76.7206 61.5895C61.8981 84.3263 40.9296 102.786 15.6228 130.25C-9.32245 157.714 -0.645844 171.054 15.6228 192.215C32.253 213.602 56.4752 242.583 107.089 238.306C157.702 233.804 197.108 219.171 237.238 220.072C277.367 220.972 318.581 237.406 349.311 234.704C380.04 231.778 380.308 198.675 399.468 176.614C418.629 154.552 430.968 148.215 444.754 125.748C453.968 106.715 444.392 60.4973 420.17 43.6136C395.948 26.955 335.123 48.8174 310.968 43.6136C287.123 43.6136 261.344 30.2937 224.468 24.2155C187.954 18.1374 151.918 -7.52133 126.25 2.15869Z" fill="#197BBD"/>
</svg>
