<svg width="448" height="228" viewBox="0 0 448 228" fill="none" xmlns="http://www.w3.org/2000/svg">
<path d="M303.735 4.28214C327.554 13.1901 336.06 38.8534 350.351 60.2748C364.302 81.6963 384.037 99.0879 407.855 124.963C431.333 150.839 458.894 185.198 443.582 205.135C427.93 225.283 369.406 230.798 321.769 226.768C274.133 222.526 237.045 208.74 199.276 209.589C161.507 210.437 122.718 225.92 93.7955 223.375C64.8734 220.617 45.1384 199.832 27.1047 179.047C9.07091 158.262 -7.94205 137.265 3.96703 120.721C15.8761 104.178 57.0475 92.0888 79.8449 76.1818C102.642 60.4869 107.746 41.3985 124.759 29.7334C141.772 18.0682 170.694 14.0384 205.401 8.31192C239.767 2.5854 279.577 -4.83787 303.735 4.28214Z" fill="#197BBD"/>
</svg>
