<svg width="192" height="192" viewBox="0 0 192 192" fill="none" xmlns="http://www.w3.org/2000/svg">
<g clip-path="url(#clip0_53_698)">
<path d="M175.989 10.6526H92.6019C89.6622 10.6526 87.2599 13.0231 87.2599 15.9946V66.6972C87.2599 69.6369 89.6304 72.0392 92.6019 72.0392H175.989C178.929 72.0392 181.331 69.6687 181.331 66.6972V15.9946C181.331 13.0549 178.929 10.6526 175.989 10.6526Z" fill="white"/>
<path d="M97.9438 60.5965V22.0638C97.9438 21.6531 98.2915 21.3049 98.7027 21.3049H169.92C170.331 21.3049 170.679 21.6526 170.679 22.0638V60.5965C170.679 61.0073 170.331 61.3554 169.92 61.3554H98.7027C98.2915 61.3554 97.9438 61.0077 97.9438 60.5965Z" fill="#6FB7DE"/>
<path d="M160.595 57.4989H128.89C125.951 57.4989 123.548 55.1284 123.548 52.1569C123.548 49.2172 125.919 46.8149 128.89 46.8149H160.595C163.535 46.8149 165.937 49.1855 165.937 52.1569C165.906 55.1279 163.535 57.4989 160.595 57.4989Z" fill="black"/>
<path d="M160.595 35.8141H111.915C108.976 35.8141 106.573 33.4436 106.573 30.4721C106.573 27.5324 108.944 25.1301 111.915 25.1301H160.595C163.535 25.1301 165.937 27.5006 165.937 30.4721C165.906 33.4436 163.535 35.8141 160.595 35.8141Z" fill="black"/>
<path d="M175.989 0H92.602C83.7829 0 76.6073 7.17562 76.6073 15.9947V66.6973C76.6073 75.5164 83.7829 82.692 92.602 82.692H109.608L95.2576 149.579C94.6571 152.456 96.4589 155.269 99.3351 155.933C102.212 156.565 105.025 154.731 105.689 151.855L109.166 135.671H159.458L162.935 151.855C163.535 154.732 166.38 156.565 169.288 155.933C172.165 155.332 173.998 152.487 173.366 149.579L158.952 82.692H175.989C184.808 82.692 191.984 75.5164 191.984 66.6973V15.9947C191.984 7.17562 184.809 0 175.989 0ZM111.441 124.955L120.545 82.692H148.046L157.149 124.923H111.441L111.441 124.955ZM181.331 66.6973C181.331 69.637 178.961 72.0393 175.989 72.0393H92.602C89.6623 72.0393 87.26 69.6688 87.26 66.6973V15.9947C87.26 13.055 89.6305 10.6527 92.602 10.6527H175.989C178.929 10.6527 181.331 13.0232 181.331 15.9947V66.6973Z" fill="black"/>
<path d="M56.5982 135.007C58.9687 134.469 60.8023 132.352 60.8023 129.791V93.1231C60.8023 87.7176 57.1355 83.1345 52.1412 81.7751L40.5086 105.261C39.5918 107.063 37.7587 108.233 35.704 108.233C33.6494 108.233 31.8158 107.095 30.9307 105.261L19.2981 81.8064C14.3356 83.1658 10.6688 87.7494 10.6688 93.0913V129.791C10.6688 132.32 12.4707 134.469 14.873 135.007C15.2837 135.039 56.2187 135.039 56.5982 135.007Z" fill="#FF9A56"/>
<path d="M35.7353 52.0934C40.8875 52.0934 45.0604 47.8892 45.0604 42.7682C45.0604 37.6473 40.8563 33.4431 35.7353 33.4431C30.6143 33.4431 26.4102 37.6473 26.4102 42.7682C26.4102 47.8892 30.6143 52.0934 35.7353 52.0934Z" fill="white"/>
<path d="M51.1608 181.284V145.817H20.3411V181.284H30.4246V154.826C30.4246 151.886 32.7951 149.484 35.7666 149.484C38.738 149.484 41.1086 151.855 41.1086 154.826V181.284H51.1608Z" fill="white"/>
<path d="M35.7352 62.7459C46.7674 62.7459 55.7131 53.8002 55.7131 42.7681C55.7131 31.736 46.7669 22.7908 35.7352 22.7908C24.7036 22.7908 15.7574 31.7365 15.7574 42.7686C15.7574 53.8007 24.7031 62.7459 35.7352 62.7459ZM35.7352 33.4434C40.8875 33.4434 45.0604 37.6476 45.0604 42.7686C45.0604 47.8895 40.8562 52.0937 35.7352 52.0937C30.6143 52.0937 26.4101 47.9213 26.4101 42.7686C26.4101 37.6158 30.6143 33.4434 35.7352 33.4434Z" fill="black"/>
<path d="M49.0431 70.7747C46.9884 70.7747 45.1548 71.9125 44.2385 73.7461L35.7035 90.9735L27.169 73.7461C26.2522 71.9443 24.4191 70.7747 22.3957 70.7747C10.0678 70.7747 0.015625 80.8269 0.015625 93.1861V129.822C0.015625 136.365 3.99828 141.992 9.62533 144.489V186.657C9.62533 189.597 11.9959 191.999 14.9673 191.999H56.5028C59.4425 191.999 61.8448 189.628 61.8448 186.657V144.457C67.5031 141.992 71.4858 136.334 71.4858 129.79V93.1225C71.4545 80.8269 61.4027 70.7747 49.0431 70.7747ZM14.9042 135.007C12.5337 134.469 10.7001 132.351 10.7001 129.791V93.123C10.7001 87.7174 14.3669 83.1974 19.3294 81.8381L30.962 105.324C31.8788 107.126 33.7119 108.296 35.7353 108.296C37.7899 108.296 39.6236 107.158 40.5399 105.324L52.1725 81.8381C57.1668 83.1974 60.8336 87.781 60.8336 93.1861V129.822C60.8336 132.351 59.0317 134.501 56.6294 135.038C56.2818 135.07 15.2201 135.07 14.9042 135.007ZM35.7353 149.484C32.7956 149.484 30.3933 151.855 30.3933 154.826V181.284H20.3411V145.754H51.2244V181.22H41.1404V154.762C41.0773 151.886 38.7068 149.484 35.7353 149.484Z" fill="black"/>
</g>
<defs>
<clipPath id="clip0_53_698">
<rect width="192" height="192" fill="white"/>
</clipPath>
</defs>
</svg>
